<svg xmlns="http://www.w3.org/2000/svg" width="800" height="400" viewBox="0 0 800 400">
  <defs>
    <linearGradient id="bg" x1="0" y1="0" x2="0" y2="1">
      <stop offset="0%" stop-color="#413fd6" stop-opacity="0.08"/>
      <stop offset="100%" stop-color="#5efae4" stop-opacity="0.03"/>
    </linearGradient>
    <linearGradient id="chart1" x1="0" y1="0" x2="0" y2="1">
      <stop offset="0%" stop-color="#5efae4" stop-opacity="0.5"/>
      <stop offset="100%" stop-color="#5efae4" stop-opacity="0.05"/>
    </linearGradient>
    <linearGradient id="chart2" x1="0" y1="0" x2="0" y2="1">
      <stop offset="0%" stop-color="#413fd6" stop-opacity="0.5"/>
      <stop offset="100%" stop-color="#413fd6" stop-opacity="0.05"/>
    </linearGradient>
    <filter id="glow">
      <feGaussianBlur stdDeviation="2" result="blur"/>
      <feMerge>
        <feMergeNode in="blur"/>
        <feMergeNode in="SourceGraphic"/>
      </feMerge>
    </filter>
  </defs>
  <rect width="800" height="400" fill="url(#bg)"/>
  <rect x="20" y="20" width="240" height="175" rx="8" fill="#413fd6" opacity="0.06" stroke="#5efae4" stroke-width="0.8" stroke-opacity="0.15"/>
  <text x="36" y="48" font-family="Arial,Helvetica,sans-serif" font-size="10" fill="#413fd6" opacity="0.6">Production Output</text>
  <polyline points="40,170 60,155 80,162 100,140 120,148 140,130 160,135 180,110 200,120 220,95 240,105" fill="none" stroke="#5efae4" stroke-width="1.5" stroke-linejoin="round"/>
  <line x1="40" y1="175" x2="245" y2="175" stroke="#413fd6" stroke-width="0.5" opacity="0.15"/>
  <line x1="40" y1="155" x2="245" y2="155" stroke="#413fd6" stroke-width="0.5" opacity="0.1"/>
  <line x1="40" y1="135" x2="245" y2="135" stroke="#413fd6" stroke-width="0.5" opacity="0.1"/>
  <line x1="40" y1="115" x2="245" y2="115" stroke="#413fd6" stroke-width="0.5" opacity="0.1"/>
  <circle cx="220" cy="95" r="3" fill="#5efae4" filter="url(#glow)"/>
  <circle cx="180" cy="110" r="2.5" fill="#5efae4" opacity="0.7"/>
  <circle cx="140" cy="130" r="2.5" fill="#5efae4" opacity="0.7"/>
  <rect x="20" y="210" width="240" height="170" rx="8" fill="#413fd6" opacity="0.06" stroke="#5efae4" stroke-width="0.8" stroke-opacity="0.15"/>
  <text x="36" y="238" font-family="Arial,Helvetica,sans-serif" font-size="10" fill="#413fd6" opacity="0.6">Machine Status</text>
  <circle cx="60" cy="270" r="6" fill="#5efae4" opacity="0.8"/>
  <text x="74" y="273" font-family="Arial,Helvetica,sans-serif" font-size="9" fill="#413fd6" opacity="0.7">CNC-01</text>
  <circle cx="60" cy="300" r="6" fill="#5efae4" opacity="0.9" filter="url(#glow)"/>
  <text x="74" y="303" font-family="Arial,Helvetica,sans-serif" font-size="9" fill="#413fd6" opacity="0.7">CNC-02</text>
  <circle cx="60" cy="330" r="6" fill="#413fd6" opacity="0.5"/>
  <text x="74" y="333" font-family="Arial,Helvetica,sans-serif" font-size="9" fill="#413fd6" opacity="0.7">CNC-03</text>
  <circle cx="60" cy="360" r="6" fill="#5efae4" opacity="0.8"/>
  <text x="74" y="363" font-family="Arial,Helvetica,sans-serif" font-size="9" fill="#413fd6" opacity="0.7">CNC-04</text>
  <rect x="150" y="260" width="95" height="30" rx="4" fill="#5efae4" opacity="0.1" stroke="#5efae4" stroke-width="0.5" stroke-opacity="0.3"/>
  <text x="160" y="278" font-family="Arial,Helvetica,sans-serif" font-size="9" fill="#413fd6" opacity="0.6">Efficiency: 94.2%</text>
  <rect x="150" y="300" width="95" height="30" rx="4" fill="#5efae4" opacity="0.15" stroke="#5efae4" stroke-width="0.5" stroke-opacity="0.4"/>
  <text x="160" y="318" font-family="Arial,Helvetica,sans-serif" font-size="9" fill="#413fd6" opacity="0.6">Efficiency: 97.8%</text>
  <rect x="150" y="340" width="95" height="30" rx="4" fill="#413fd6" opacity="0.08" stroke="#413fd6" stroke-width="0.5" stroke-opacity="0.2"/>
  <text x="160" y="358" font-family="Arial,Helvetica,sans-serif" font-size="9" fill="#413fd6" opacity="0.6">Efficiency: OFF</text>
  <rect x="280" y="20" width="245" height="170" rx="8" fill="#413fd6" opacity="0.06" stroke="#5efae4" stroke-width="0.8" stroke-opacity="0.15"/>
  <text x="296" y="48" font-family="Arial,Helvetica,sans-serif" font-size="10" fill="#413fd6" opacity="0.6">Energy Consumption</text>
  <rect x="310" y="65" width="18" height="90" rx="2" fill="url(#chart1)" stroke="#5efae4" stroke-width="0.5" opacity="0.4"/>
  <rect x="340" y="85" width="18" height="70" rx="2" fill="url(#chart2)" stroke="#413fd6" stroke-width="0.5" opacity="0.4"/>
  <rect x="370" y="55" width="18" height="100" rx="2" fill="url(#chart1)" stroke="#5efae4" stroke-width="0.5" opacity="0.4"/>
  <rect x="400" y="75" width="18" height="80" rx="2" fill="url(#chart2)" stroke="#413fd6" stroke-width="0.5" opacity="0.4"/>
  <rect x="430" y="60" width="18" height="95" rx="2" fill="url(#chart1)" stroke="#5efae4" stroke-width="0.5" opacity="0.4"/>
  <rect x="460" y="90" width="18" height="65" rx="2" fill="url(#chart2)" stroke="#413fd6" stroke-width="0.5" opacity="0.4"/>
  <line x1="310" y1="160" x2="480" y2="160" stroke="#413fd6" stroke-width="0.5" opacity="0.15"/>
  <text x="310" y="175" font-family="Arial,Helvetica,sans-serif" font-size="8" fill="#413fd6" opacity="0.4">M T W T F S S</text>
  <rect x="280" y="210" width="245" height="170" rx="8" fill="#413fd6" opacity="0.06" stroke="#5efae4" stroke-width="0.8" stroke-opacity="0.15"/>
  <text x="296" y="238" font-family="Arial,Helvetica,sans-serif" font-size="10" fill="#413fd6" opacity="0.6">Factory Network Nodes</text>
  <circle cx="320" cy="280" r="8" fill="#5efae4" opacity="0.15" stroke="#5efae4" stroke-width="1"/>
  <text x="314" y="283" font-family="Arial,Helvetica,sans-serif" font-size="7" fill="#5efae4" opacity="0.9">MC</text>
  <line x1="328" y1="280" x2="370" y2="270" stroke="#5efae4" stroke-width="0.5" opacity="0.3"/>
  <circle cx="370" cy="270" r="8" fill="#413fd6" opacity="0.15" stroke="#413fd6" stroke-width="1"/>
  <text x="364" y="273" font-family="Arial,Helvetica,sans-serif" font-size="7" fill="#413fd6" opacity="0.9">SR</text>
  <line x1="370" y1="278" x2="370" y2="320" stroke="#413fd6" stroke-width="0.5" opacity="0.3"/>
  <circle cx="370" cy="320" r="8" fill="#5efae4" opacity="0.15" stroke="#5efae4" stroke-width="1"/>
  <text x="364" y="323" font-family="Arial,Helvetica,sans-serif" font-size="7" fill="#5efae4" opacity="0.9">PL</text>
  <line x1="328" y1="280" x2="420" y2="290" stroke="#5efae4" stroke-width="0.5" opacity="0.3"/>
  <line x1="370" y1="320" x2="420" y2="290" stroke="#5efae4" stroke-width="0.5" opacity="0.3"/>
  <circle cx="420" cy="290" r="8" fill="#5efae4" opacity="0.15" stroke="#5efae4" stroke-width="1"/>
  <text x="414" y="293" font-family="Arial,Helvetica,sans-serif" font-size="7" fill="#5efae4" opacity="0.9">GW</text>
  <line x1="420" y1="298" x2="450" y2="330" stroke="#413fd6" stroke-width="0.5" opacity="0.3"/>
  <line x1="370" y1="328" x2="450" y2="330" stroke="#413fd6" stroke-width="0.5" opacity="0.3"/>
  <circle cx="450" cy="330" r="8" fill="#413fd6" opacity="0.15" stroke="#413fd6" stroke-width="1"/>
  <text x="444" y="333" font-family="Arial,Helvetica,sans-serif" font-size="7" fill="#413fd6" opacity="0.9">DB</text>
  <line x1="420" y1="290" x2="490" y2="275" stroke="#5efae4" stroke-width="0.5" opacity="0.3"/>
  <circle cx="490" cy="275" r="8" fill="#5efae4" opacity="0.15" stroke="#5efae4" stroke-width="1"/>
  <text x="484" y="278" font-family="Arial,Helvetica,sans-serif" font-size="7" fill="#5efae4" opacity="0.9">CL</text>
  <circle cx="320" cy="330" r="4" fill="#5efae4" opacity="0.6" filter="url(#glow)"/>
  <circle cx="420" cy="250" r="3" fill="#5efae4" opacity="0.4"/>
  <circle cx="490" cy="310" r="3" fill="#413fd6" opacity="0.4"/>
  <rect x="545" y="20" width="235" height="360" rx="8" fill="#413fd6" opacity="0.06" stroke="#5efae4" stroke-width="0.8" stroke-opacity="0.15"/>
  <text x="561" y="48" font-family="Arial,Helvetica,sans-serif" font-size="10" fill="#413fd6" opacity="0.6">Real-Time Alerts</text>
  <rect x="561" y="65" width="203" height="45" rx="4" fill="#5efae4" opacity="0.08" stroke="#5efae4" stroke-width="0.5" stroke-opacity="0.2"/>
  <circle cx="575" cy="80" r="4" fill="#5efae4" opacity="0.9" filter="url(#glow)"/>
  <text x="586" y="78" font-family="Arial,Helvetica,sans-serif" font-size="9" fill="#413fd6" opacity="0.7">CNC-02: Temp spike</text>
  <text x="586" y="93" font-family="Arial,Helvetica,sans-serif" font-size="8" fill="#5efae4" opacity="0.5">2 min ago</text>
  <line x1="561" y1="115" x2="764" y2="115" stroke="#413fd6" stroke-width="0.5" opacity="0.1"/>
  <rect x="561" y="125" width="203" height="45" rx="4" fill="#413fd6" opacity="0.06" stroke="#413fd6" stroke-width="0.5" stroke-opacity="0.15"/>
  <circle cx="575" cy="140" r="4" fill="#413fd6" opacity="0.6"/>
  <text x="586" y="138" font-family="Arial,Helvetica,sans-serif" font-size="9" fill="#413fd6" opacity="0.6">Line B: Maintenance due</text>
  <text x="586" y="153" font-family="Arial,Helvetica,sans-serif" font-size="8" fill="#413fd6" opacity="0.4">15 min ago</text>
  <line x1="561" y1="175" x2="764" y2="175" stroke="#413fd6" stroke-width="0.5" opacity="0.1"/>
  <rect x="561" y="185" width="203" height="45" rx="4" fill="#5efae4" opacity="0.08" stroke="#5efae4" stroke-width="0.5" stroke-opacity="0.2"/>
  <circle cx="575" cy="200" r="4" fill="#5efae4" opacity="0.9" filter="url(#glow)"/>
  <text x="586" y="198" font-family="Arial,Helvetica,sans-serif" font-size="9" fill="#413fd6" opacity="0.7">Sensor A3: Anomaly</text>
  <text x="586" y="213" font-family="Arial,Helvetica,sans-serif" font-size="8" fill="#5efae4" opacity="0.5">27 min ago</text>
  <line x1="561" y1="235" x2="764" y2="235" stroke="#413fd6" stroke-width="0.5" opacity="0.1"/>
  <rect x="561" y="245" width="203" height="45" rx="4" fill="#413fd6" opacity="0.06" stroke="#413fd6" stroke-width="0.5" stroke-opacity="0.15"/>
  <circle cx="575" cy="260" r="4" fill="#413fd6" opacity="0.6"/>
  <text x="586" y="258" font-family="Arial,Helvetica,sans-serif" font-size="9" fill="#413fd6" opacity="0.6">Shift change report</text>
  <text x="586" y="273" font-family="Arial,Helvetica,sans-serif" font-size="8" fill="#413fd6" opacity="0.4">1h ago</text>
  <line x1="561" y1="295" x2="764" y2="295" stroke="#413fd6" stroke-width="0.5" opacity="0.1"/>
  <rect x="561" y="305" width="203" height="45" rx="4" fill="#5efae4" opacity="0.08" stroke="#5efae4" stroke-width="0.5" stroke-opacity="0.2"/>
  <circle cx="575" cy="320" r="4" fill="#5efae4" opacity="0.4"/>
  <text x="586" y="318" font-family="Arial,Helvetica,sans-serif" font-size="9" fill="#413fd6" opacity="0.6">OEE target exceeded</text>
  <text x="586" y="333" font-family="Arial,Helvetica,sans-serif" font-size="8" fill="#5efae4" opacity="0.5">2h ago</text>
  <text x="575" y="368" font-family="Arial,Helvetica,sans-serif" font-size="9" fill="#5efae4" opacity="0.6">View all alerts →</text>
</svg>