<svg xmlns="http://www.w3.org/2000/svg" width="800" height="400" viewBox="0 0 800 400">
<defs>
<linearGradient id="bgDark" x1="0" y1="0" x2="0" y2="1">
<stop offset="0%" stop-color="#0d0d1a"/>
<stop offset="100%" stop-color="#1a1a2e"/>
</linearGradient>
<linearGradient id="panelBg" x1="0" y1="0" x2="0" y2="1">
<stop offset="0%" stop-color="#1e1e3a"/>
<stop offset="100%" stop-color="#16162e"/>
</linearGradient>
<linearGradient id="panelHeader" x1="0" y1="0" x2="1" y2="0">
<stop offset="0%" stop-color="#413fd6"/>
<stop offset="100%" stop-color="#2a2894"/>
</linearGradient>
<linearGradient id="accentHeader" x1="0" y1="0" x2="1" y2="0">
<stop offset="0%" stop-color="#5efae4"/>
<stop offset="100%" stop-color="#3cc6b4"/>
</linearGradient>
<linearGradient id="chartArea" x1="0" y1="0" x2="0" y2="1">
<stop offset="0%" stop-color="#5efae4" stop-opacity="0.35"/>
<stop offset="60%" stop-color="#5efae4" stop-opacity="0.08"/>
<stop offset="100%" stop-color="#5efae4" stop-opacity="0"/>
</linearGradient>
<linearGradient id="barBlue" x1="0" y1="0" x2="0" y2="1">
<stop offset="0%" stop-color="#413fd6"/>
<stop offset="100%" stop-color="#2a2894"/>
</linearGradient>
<linearGradient id="barTeal" x1="0" y1="0" x2="0" y2="1">
<stop offset="0%" stop-color="#5efae4"/>
<stop offset="100%" stop-color="#3cc6b4"/>
</linearGradient>
<linearGradient id="kpiGrad1" x1="0" y1="0" x2="1" y2="1">
<stop offset="0%" stop-color="#413fd6" stop-opacity="0.4"/>
<stop offset="100%" stop-color="#5efae4" stop-opacity="0.1"/>
</linearGradient>
<linearGradient id="kpiGrad2" x1="0" y1="0" x2="1" y2="1">
<stop offset="0%" stop-color="#5efae4" stop-opacity="0.4"/>
<stop offset="100%" stop-color="#413fd6" stop-opacity="0.1"/>
</linearGradient>
<radialGradient id="nodeGlow" cx="50%" cy="50%" r="50%">
<stop offset="0%" stop-color="#5efae4" stop-opacity="0.6"/>
<stop offset="60%" stop-color="#5efae4" stop-opacity="0.1"/>
<stop offset="100%" stop-color="#5efae4" stop-opacity="0"/>
</radialGradient>
<radialGradient id="nodeGlowBlue" cx="50%" cy="50%" r="50%">
<stop offset="0%" stop-color="#413fd6" stop-opacity="0.5"/>
<stop offset="60%" stop-color="#413fd6" stop-opacity="0.1"/>
<stop offset="100%" stop-color="#413fd6" stop-opacity="0"/>
</radialGradient>
<radialGradient id="donutHole" cx="50%" cy="50%" r="50%">
<stop offset="0%" stop-color="#1a1a2e"/>
<stop offset="100%" stop-color="#1e1e3a"/>
</radialGradient>
<filter id="panelShadow">
<feDropShadow dx="0" dy="4" stdDeviation="6" flood-color="#000" flood-opacity="0.6"/>
</filter>
<filter id="glowFilter">
<feGaussianBlur stdDeviation="3"/>
</filter>
<filter id="glowSmallFilter">
<feGaussianBlur stdDeviation="1.5"/>
</filter>
<filter id="innerGlow">
<feGaussianBlur stdDeviation="2" result="blur"/>
<feMerge>
<feMergeNode in="blur"/>
<feMergeNode in="SourceGraphic"/>
</feMerge>
</filter>
</defs>
<rect width="800" height="400" fill="url(#bgDark)"/>
<rect x="0" y="0" width="800" height="36" fill="url(#panelHeader)" opacity="0.9"/>
<rect x="0" y="36" width="800" height="2" fill="#5efae4" opacity="0.3"/>
<text x="20" y="24" font-family="Arial,Helvetica,sans-serif" font-size="13" font-weight="bold" fill="#fff" opacity="0.95">YANTRA-MITRA</text>
<text x="20" y="50" font-family="Arial,Helvetica,sans-serif" font-size="9" fill="#5efae4" opacity="0.6">Manufacturing Intelligence Platform</text>
<circle cx="750" cy="18" r="4" fill="#5efae4" opacity="0.8" filter="url(#innerGlow)"/>
<text x="725" y="22" font-family="Arial,Helvetica,sans-serif" font-size="8" fill="#fff" opacity="0.5">LIVE</text>
<circle cx="770" cy="18" r="4" fill="#413fd6" opacity="0.6"/>
<circle cx="775" cy="18" r="4" fill="#5efae4" opacity="0.5"/>
<circle cx="780" cy="18" r="4" fill="#413fd6" opacity="0.4"/>
<rect x="15" y="60" width="250" height="155" rx="6" fill="url(#panelBg)" filter="url(#panelShadow)"/>
<rect x="15" y="60" width="250" height="22" rx="6" fill="url(#panelHeader)" opacity="0.8"/>
<rect x="15" y="76" width="250" height="6" fill="url(#panelHeader)" opacity="0.8"/>
<text x="25" y="75" font-family="Arial,Helvetica,sans-serif" font-size="10" font-weight="bold" fill="#fff" opacity="0.9">Production Output</text>
<circle cx="248" cy="71" r="3" fill="#5efae4" opacity="0.6"/>
<line x1="30" y1="96" x2="250" y2="96" stroke="#5efae4" stroke-width="0.3" opacity="0.15"/>
<line x1="30" y1="116" x2="250" y2="116" stroke="#5efae4" stroke-width="0.3" opacity="0.15"/>
<line x1="30" y1="136" x2="250" y2="136" stroke="#5efae4" stroke-width="0.3" opacity="0.15"/>
<line x1="30" y1="156" x2="250" y2="156" stroke="#5efae4" stroke-width="0.3" opacity="0.15"/>
<line x1="30" y1="176" x2="250" y2="176" stroke="#5efae4" stroke-width="0.3" opacity="0.15"/>
<line x1="30" y1="196" x2="250" y2="196" stroke="#5efae4" stroke-width="0.3" opacity="0.15"/>
<line x1="30" y1="96" x2="30" y2="200" stroke="#5efae4" stroke-width="0.3" opacity="0.15"/>
<line x1="70" y1="96" x2="70" y2="200" stroke="#5efae4" stroke-width="0.3" opacity="0.08"/>
<line x1="110" y1="96" x2="110" y2="200" stroke="#5efae4" stroke-width="0.3" opacity="0.08"/>
<line x1="150" y1="96" x2="150" y2="200" stroke="#5efae4" stroke-width="0.3" opacity="0.08"/>
<line x1="190" y1="96" x2="190" y2="200" stroke="#5efae4" stroke-width="0.3" opacity="0.08"/>
<line x1="230" y1="96" x2="230" y2="200" stroke="#5efae4" stroke-width="0.3" opacity="0.08"/>
<path d="M30 196 L40 186 L50 190 L60 176 L70 180 L80 166 L90 170 L100 152 L110 158 L120 140 L130 146 L140 128 L150 134 L160 116 L170 122 L180 104 L190 112 L200 96 L210 100 L220 90 L230 94 L240 86 L250 82" fill="none" stroke="#5efae4" stroke-width="1.8" stroke-linejoin="round"/>
<path d="M30 196 L40 186 L50 190 L60 176 L70 180 L80 166 L90 170 L100 152 L110 158 L120 140 L130 146 L140 128 L150 134 L160 116 L170 122 L180 104 L190 112 L200 96 L210 100 L220 90 L230 94 L240 86 L250 82 L250 200 L30 200 Z" fill="url(#chartArea)" opacity="0.5"/>
<circle cx="200" cy="96" r="3.5" fill="#5efae4" filter="url(#glowSmallFilter)"/>
<circle cx="160" cy="116" r="2.5" fill="#5efae4" opacity="0.8"/>
<circle cx="120" cy="140" r="2.5" fill="#5efae4" opacity="0.8"/>
<circle cx="80" cy="166" r="2.5" fill="#5efae4" opacity="0.8"/>
<circle cx="240" cy="86" r="2" fill="#5efae4" opacity="0.6"/>
<circle cx="140" cy="128" r="2" fill="#5efae4" opacity="0.6"/>
<circle cx="100" cy="152" r="2" fill="#5efae4" opacity="0.6"/>
<text x="30" y="88" font-family="Arial,Helvetica,sans-serif" font-size="7" fill="#5efae4" opacity="0.4">400</text>
<text x="30" y="108" font-family="Arial,Helvetica,sans-serif" font-size="7" fill="#5efae4" opacity="0.4">300</text>
<text x="30" y="128" font-family="Arial,Helvetica,sans-serif" font-size="7" fill="#5efae4" opacity="0.4">200</text>
<text x="30" y="148" font-family="Arial,Helvetica,sans-serif" font-size="7" fill="#5efae4" opacity="0.4">100</text>
<text x="30" y="168" font-family="Arial,Helvetica,sans-serif" font-size="7" fill="#5efae4" opacity="0.4">0</text>
<text x="80" y="210" font-family="Arial,Helvetica,sans-serif" font-size="7" fill="#413fd6" opacity="0.5">Jan Feb Mar Apr May Jun</text>
<rect x="15" y="225" width="250" height="160" rx="6" fill="url(#panelBg)" filter="url(#panelShadow)"/>
<rect x="15" y="225" width="250" height="22" rx="6" fill="url(#accentHeader)" opacity="0.8"/>
<rect x="15" y="241" width="250" height="6" fill="url(#accentHeader)" opacity="0.8"/>
<text x="25" y="240" font-family="Arial,Helvetica,sans-serif" font-size="10" font-weight="bold" fill="#0d0d1a" opacity="0.9">Machine Utilization</text>
<circle cx="248" cy="236" r="3" fill="#0d0d1a" opacity="0.5"/>
<rect x="30" y="255" width="18" height="50" rx="2" fill="url(#barTeal)" opacity="0.8"/>
<rect x="30" y="305" width="18" height="2" fill="#5efae4" opacity="0.5"/>
<rect x="55" y="275" width="18" height="30" rx="2" fill="url(#barBlue)" opacity="0.8"/>
<rect x="55" y="305" width="18" height="2" fill="#413fd6" opacity="0.5"/>
<rect x="80" y="245" width="18" height="60" rx="2" fill="url(#barTeal)" opacity="0.8"/>
<rect x="80" y="305" width="18" height="2" fill="#5efae4" opacity="0.5"/>
<rect x="105" y="260" width="18" height="45" rx="2" fill="url(#barBlue)" opacity="0.8"/>
<rect x="105" y="305" width="18" height="2" fill="#413fd6" opacity="0.5"/>
<rect x="130" y="250" width="18" height="55" rx="2" fill="url(#barTeal)" opacity="0.8"/>
<rect x="130" y="305" width="18" height="2" fill="#5efae4" opacity="0.5"/>
<rect x="155" y="268" width="18" height="37" rx="2" fill="url(#barBlue)" opacity="0.8"/>
<rect x="155" y="305" width="18" height="2" fill="#413fd6" opacity="0.5"/>
<rect x="180" y="240" width="18" height="65" rx="2" fill="url(#barTeal)" opacity="0.8"/>
<rect x="180" y="305" width="18" height="2" fill="#5efae4" opacity="0.5"/>
<rect x="205" y="255" width="18" height="50" rx="2" fill="url(#barBlue)" opacity="0.8"/>
<rect x="205" y="305" width="18" height="2" fill="#413fd6" opacity="0.5"/>
<rect x="230" y="270" width="18" height="35" rx="2" fill="url(#barTeal)" opacity="0.8"/>
<rect x="230" y="305" width="18" height="2" fill="#5efae4" opacity="0.5"/>
<line x1="30" y1="310" x2="250" y2="310" stroke="#5efae4" stroke-width="0.3" opacity="0.15"/>
<text x="35" y="322" font-family="Arial,Helvetica,sans-serif" font-size="7" fill="#413fd6" opacity="0.5">M1 M2 M3 M4 M5 M6 M7 M8</text>
<line x1="30" y1="330" x2="250" y2="330" stroke="#5efae4" stroke-width="0.3" opacity="0.1"/>
<rect x="30" y="338" width="8" height="8" rx="1" fill="#5efae4" opacity="0.6"/>
<text x="42" y="345" font-family="Arial,Helvetica,sans-serif" font-size="7" fill="#5efae4" opacity="0.6">CNC Line A</text>
<rect x="110" y="338" width="8" height="8" rx="1" fill="#413fd6" opacity="0.6"/>
<text x="122" y="345" font-family="Arial,Helvetica,sans-serif" font-size="7" fill="#413fd6" opacity="0.6">CNC Line B</text>
<rect x="30" y="350" width="10" height="30" rx="2" fill="url(#kpiGrad1)"/>
<text x="44" y="365" font-family="Arial,Helvetica,sans-serif" font-size="8" fill="#5efae4" opacity="0.7">OEE: 87.4%</text>
<rect x="120" y="350" width="10" height="30" rx="2" fill="url(#kpiGrad2)"/>
<text x="134" y="365" font-family="Arial,Helvetica,sans-serif" font-size="8" fill="#5efae4" opacity="0.7">TEEP: 82.1%</text>
<rect x="280" y="60" width="240" height="155" rx="6" fill="url(#panelBg)" filter="url(#panelShadow)"/>
<rect x="280" y="60" width="240" height="22" rx="6" fill="url(#panelHeader)" opacity="0.8"/>
<rect x="280" y="76" width="240" height="6" fill="url(#panelHeader)" opacity="0.8"/>
<text x="290" y="75" font-family="Arial,Helvetica,sans-serif" font-size="10" font-weight="bold" fill="#fff" opacity="0.9">Energy &amp; Quality</text>
<circle cx="503" cy="71" r="3" fill="#5efae4" opacity="0.6"/>
<text x="290" y="95" font-family="Arial,Helvetica,sans-serif" font-size="8" fill="#5efae4" opacity="0.5">Energy Mix</text>
<circle cx="340" cy="130" r="28" fill="none" stroke="#5efae4" stroke-width="6" stroke-dasharray="58 118" stroke-opacity="0.7"/>
<circle cx="340" cy="130" r="28" fill="none" stroke="#413fd6" stroke-width="6" stroke-dasharray="40 136" stroke-dashoffset="-58" stroke-opacity="0.7"/>
<circle cx="340" cy="130" r="28" fill="none" stroke="#3a3a5a" stroke-width="6" stroke-dasharray="30 146" stroke-dashoffset="-98" stroke-opacity="0.5"/>
<circle cx="340" cy="130" r="28" fill="none" stroke="#1a1a2e" stroke-width="3"/>
<circle cx="340" cy="130" r="12" fill="url(#donutHole)"/>
<text x="333" y="133" font-family="Arial,Helvetica,sans-serif" font-size="8" font-weight="bold" fill="#5efae4" opacity="0.8">46%</text>
<rect x="375" y="105" width="8" height="8" rx="1" fill="#5efae4" opacity="0.6"/>
<text x="387" y="112" font-family="Arial,Helvetica,sans-serif" font-size="7" fill="#5efae4" opacity="0.6">Solar</text>
<rect x="375" y="120" width="8" height="8" rx="1" fill="#413fd6" opacity="0.6"/>
<text x="387" y="127" font-family="Arial,Helvetica,sans-serif" font-size="7" fill="#413fd6" opacity="0.6">Grid</text>
<rect x="375" y="135" width="8" height="8" rx="1" fill="#3a3a5a" opacity="0.6"/>
<text x="387" y="142" font-family="Arial,Helvetica,sans-serif" font-size="7" fill="#3a3a5a" opacity="0.6">Backup</text>
<text x="290" y="168" font-family="Arial,Helvetica,sans-serif" font-size="8" fill="#5efae4" opacity="0.5">Quality Metrics</text>
<rect x="290" y="175" width="215" height="4" rx="2" fill="#3a3a5a" opacity="0.5"/>
<rect x="290" y="175" width="195" height="4" rx="2" fill="#5efae4" opacity="0.7"/>
<text x="291" y="192" font-family="Arial,Helvetica,sans-serif" font-size="7" fill="#5efae4" opacity="0.4">Yield Rate</text>
<text x="485" y="192" font-family="Arial,Helvetica,sans-serif" font-size="7" fill="#5efae4" opacity="0.6">96.3%</text>
<rect x="290" y="198" width="215" height="4" rx="2" fill="#3a3a5a" opacity="0.5"/>
<rect x="290" y="198" width="178" height="4" rx="2" fill="#413fd6" opacity="0.7"/>
<text x="291" y="210" font-family="Arial,Helvetica,sans-serif" font-size="7" fill="#413fd6" opacity="0.4">First Pass Yield</text>
<text x="485" y="210" font-family="Arial,Helvetica,sans-serif" font-size="7" fill="#413fd6" opacity="0.6">91.7%</text>
<rect x="280" y="225" width="240" height="160" rx="6" fill="url(#panelBg)" filter="url(#panelShadow)"/>
<rect x="280" y="225" width="240" height="22" rx="6" fill="url(#accentHeader)" opacity="0.8"/>
<rect x="280" y="241" width="240" height="6" fill="url(#accentHeader)" opacity="0.8"/>
<text x="290" y="240" font-family="Arial,Helvetica,sans-serif" font-size="10" font-weight="bold" fill="#0d0d1a" opacity="0.9">KPI Dashboard</text>
<circle cx="503" cy="236" r="3" fill="#0d0d1a" opacity="0.5"/>
<rect x="290" y="256" width="105" height="50" rx="4" fill="url(#kpiGrad1)" stroke="#5efae4" stroke-width="0.5" stroke-opacity="0.3"/>
<text x="300" y="272" font-family="Arial,Helvetica,sans-serif" font-size="9" fill="#5efae4" opacity="0.5">Availability</text>
<text x="300" y="295" font-family="Arial,Helvetica,sans-serif" font-size="18" font-weight="bold" fill="#5efae4" opacity="0.9">94.2%</text>
<rect x="405" y="256" width="105" height="50" rx="4" fill="url(#kpiGrad2)" stroke="#413fd6" stroke-width="0.5" stroke-opacity="0.3"/>
<text x="415" y="272" font-family="Arial,Helvetica,sans-serif" font-size="9" fill="#413fd6" opacity="0.5">Performance</text>
<text x="415" y="295" font-family="Arial,Helvetica,sans-serif" font-size="18" font-weight="bold" fill="#413fd6" opacity="0.9">87.0%</text>
<rect x="290" y="316" width="105" height="50" rx="4" fill="url(#kpiGrad2)" stroke="#5efae4" stroke-width="0.5" stroke-opacity="0.3"/>
<text x="300" y="332" font-family="Arial,Helvetica,sans-serif" font-size="9" fill="#5efae4" opacity="0.5">Daily Output</text>
<text x="300" y="355" font-family="Arial,Helvetica,sans-serif" font-size="18" font-weight="bold" fill="#5efae4" opacity="0.9">2,847</text>
<rect x="405" y="316" width="105" height="50" rx="4" fill="url(#kpiGrad1)" stroke="#413fd6" stroke-width="0.5" stroke-opacity="0.3"/>
<text x="415" y="332" font-family="Arial,Helvetica,sans-serif" font-size="9" fill="#413fd6" opacity="0.5">Revenue</text>
<text x="415" y="355" font-family="Arial,Helvetica,sans-serif" font-size="18" font-weight="bold" fill="#413fd6" opacity="0.9">$12.4K</text>
<rect x="290" y="372" width="220" height="8" rx="2" fill="#3a3a5a" opacity="0.4"/>
<rect x="290" y="372" width="176" height="8" rx="2" fill="#5efae4" opacity="0.6"/>
<text x="340" y="380" font-family="Arial,Helvetica,sans-serif" font-size="6" fill="#1a1a2e" opacity="0.8">Monthly Target: 80%</text>
<rect x="535" y="60" width="250" height="325" rx="6" fill="url(#panelBg)" filter="url(#panelShadow)"/>
<rect x="535" y="60" width="250" height="22" rx="6" fill="url(#panelHeader)" opacity="0.8"/>
<rect x="535" y="76" width="250" height="6" fill="url(#panelHeader)" opacity="0.8"/>
<text x="545" y="75" font-family="Arial,Helvetica,sans-serif" font-size="10" font-weight="bold" fill="#fff" opacity="0.9">Network Topology</text>
<circle cx="768" cy="71" r="3" fill="#5efae4" opacity="0.6"/>
<circle cx="660" cy="120" r="22" fill="url(#nodeGlow)" opacity="0.6"/>
<circle cx="660" cy="120" r="10" fill="#1e1e3a" stroke="#5efae4" stroke-width="1.5"/>
<text x="653" y="123" font-family="Arial,Helvetica,sans-serif" font-size="7" font-weight="bold" fill="#5efae4" opacity="0.9">HUB</text>
<circle cx="580" cy="180" r="18" fill="url(#nodeGlowBlue)" opacity="0.4"/>
<circle cx="580" cy="180" r="8" fill="#1e1e3a" stroke="#413fd6" stroke-width="1.2"/>
<text x="574" y="183" font-family="Arial,Helvetica,sans-serif" font-size="6" font-weight="bold" fill="#413fd6" opacity="0.9">SRV1</text>
<circle cx="660" cy="200" r="18" fill="url(#nodeGlow)" opacity="0.4"/>
<circle cx="660" cy="200" r="8" fill="#1e1e3a" stroke="#5efae4" stroke-width="1.2"/>
<text x="654" y="203" font-family="Arial,Helvetica,sans-serif" font-size="6" font-weight="bold" fill="#5efae4" opacity="0.9">SRV2</text>
<circle cx="740" cy="180" r="18" fill="url(#nodeGlowBlue)" opacity="0.4"/>
<circle cx="740" cy="180" r="8" fill="#1e1e3a" stroke="#413fd6" stroke-width="1.2"/>
<text x="734" y="183" font-family="Arial,Helvetica,sans-serif" font-size="6" font-weight="bold" fill="#413fd6" opacity="0.9">SRV3</text>
<circle cx="580" cy="260" r="18" fill="url(#nodeGlow)" opacity="0.4"/>
<circle cx="580" cy="260" r="8" fill="#1e1e3a" stroke="#5efae4" stroke-width="1.2"/>
<text x="575" y="263" font-family="Arial,Helvetica,sans-serif" font-size="6" font-weight="bold" fill="#5efae4" opacity="0.9">EDGE</text>
<circle cx="660" cy="280" r="18" fill="url(#nodeGlowBlue)" opacity="0.4"/>
<circle cx="660" cy="280" r="8" fill="#1e1e3a" stroke="#413fd6" stroke-width="1.2"/>
<text x="655" y="283" font-family="Arial,Helvetica,sans-serif" font-size="6" font-weight="bold" fill="#413fd6" opacity="0.9">CNC1</text>
<circle cx="740" cy="260" r="18" fill="url(#nodeGlow)" opacity="0.4"/>
<circle cx="740" cy="260" r="8" fill="#1e1e3a" stroke="#5efae4" stroke-width="1.2"/>
<text x="735" y="263" font-family="Arial,Helvetica,sans-serif" font-size="6" font-weight="bold" fill="#5efae4" opacity="0.9">CNC2</text>
<circle cx="580" cy="340" r="18" fill="url(#nodeGlowBlue)" opacity="0.4"/>
<circle cx="580" cy="340" r="8" fill="#1e1e3a" stroke="#413fd6" stroke-width="1.2"/>
<text x="574" y="343" font-family="Arial,Helvetica,sans-serif" font-size="6" font-weight="bold" fill="#413fd6" opacity="0.9">PLC1</text>
<circle cx="660" cy="355" r="18" fill="url(#nodeGlow)" opacity="0.4"/>
<circle cx="660" cy="355" r="8" fill="#1e1e3a" stroke="#5efae4" stroke-width="1.2"/>
<text x="654" y="358" font-family="Arial,Helvetica,sans-serif" font-size="6" font-weight="bold" fill="#5efae4" opacity="0.9">PLC2</text>
<circle cx="740" cy="340" r="18" fill="url(#nodeGlowBlue)" opacity="0.4"/>
<circle cx="740" cy="340" r="8" fill="#1e1e3a" stroke="#413fd6" stroke-width="1.2"/>
<text x="734" y="343" font-family="Arial,Helvetica,sans-serif" font-size="6" font-weight="bold" fill="#413fd6" opacity="0.9">PLC3</text>
<line x1="640" y1="125" x2="588" y2="172" stroke="#5efae4" stroke-width="0.6" opacity="0.3"/>
<line x1="670" y1="130" x2="668" y2="192" stroke="#5efae4" stroke-width="0.6" opacity="0.3"/>
<line x1="680" y1="123" x2="732" y2="172" stroke="#5efae4" stroke-width="0.6" opacity="0.3"/>
<line x1="588" y1="188" x2="580" y2="252" stroke="#413fd6" stroke-width="0.5" opacity="0.3"/>
<line x1="668" y1="208" x2="660" y2="272" stroke="#413fd6" stroke-width="0.5" opacity="0.3"/>
<line x1="732" y1="188" x2="740" y2="252" stroke="#413fd6" stroke-width="0.5" opacity="0.3"/>
<line x1="588" y1="268" x2="580" y2="332" stroke="#5efae4" stroke-width="0.5" opacity="0.3"/>
<line x1="668" y1="288" x2="660" y2="347" stroke="#5efae4" stroke-width="0.5" opacity="0.3"/>
<line x1="732" y1="268" x2="740" y2="332" stroke="#5efae4" stroke-width="0.5" opacity="0.3"/>
<line x1="660" y1="120" x2="660" y2="95" stroke="#5efae4" stroke-width="0.5" opacity="0.2"/>
<circle cx="660" cy="90" r="3" fill="#5efae4" opacity="0.5" filter="url(#glowSmallFilter)"/>
<circle cx="660" cy="120" r="12" fill="none" stroke="#5efae4" stroke-width="0.3" opacity="0.2"/>
<rect x="545" y="95" width="40" height="14" rx="3" fill="#5efae4" opacity="0.1"/>
<text x="549" y="105" font-family="Arial,Helvetica,sans-serif" font-size="7" fill="#5efae4" opacity="0.7">10 GbE</text>
<circle cx="610" cy="220" r="3" fill="#5efae4" opacity="0.4"/>
<circle cx="700" cy="230" r="3" fill="#413fd6" opacity="0.4"/>
<circle cx="700" cy="300" r="3" fill="#5efae4" opacity="0.4"/>
<circle cx="610" cy="300" r="3" fill="#413fd6" opacity="0.4"/>
<circle cx="640" cy="155" r="2" fill="#5efae4" opacity="0.3"/>
<circle cx="700" cy="155" r="2" fill="#5efae4" opacity="0.3"/>
<rect x="545" y="365" width="8" height="8" rx="1" fill="#5efae4" opacity="0.7"/>
<text x="557" y="372" font-family="Arial,Helvetica,sans-serif" font-size="7" fill="#5efae4" opacity="0.5">Online</text>
<rect x="590" y="365" width="8" height="8" rx="1" fill="#c4a635" opacity="0.7"/>
<text x="602" y="372" font-family="Arial,Helvetica,sans-serif" font-size="7" fill="#c4a635" opacity="0.5">Warning</text>
<rect x="650" y="365" width="8" height="8" rx="1" fill="#d44" opacity="0.7"/>
<text x="662" y="372" font-family="Arial,Helvetica,sans-serif" font-size="7" fill="#d44" opacity="0.5">Critical</text>
<rect x="0" y="0" width="800" height="400" fill="none" stroke="#413fd6" stroke-width="0.5" opacity="0.1"/>
<rect x="0" y="36" width="800" height="2" fill="#5efae4" opacity="0.15"/>
<line x1="0" y1="395" x2="800" y2="395" stroke="#5efae4" stroke-width="0.3" opacity="0.1"/>
<circle cx="20" cy="390" r="2" fill="#5efae4" opacity="0.3"/>
<circle cx="780" cy="390" r="2" fill="#5efae4" opacity="0.3"/>
</svg>
