<svg xmlns="http://www.w3.org/2000/svg" width="400" height="300" viewBox="0 0 400 300">
<defs>
<linearGradient id="bgGrad" x1="0" y1="0" x2="0" y2="1">
<stop offset="0%" stop-color="#0d0d1a"/>
<stop offset="100%" stop-color="#1a1a2e"/>
</linearGradient>
<linearGradient id="machineBody" x1="0" y1="0" x2="0" y2="1">
<stop offset="0%" stop-color="#2e2e4e"/>
<stop offset="30%" stop-color="#262644"/>
<stop offset="70%" stop-color="#1e1e3a"/>
<stop offset="100%" stop-color="#16162e"/>
</linearGradient>
<linearGradient id="machineHighlight" x1="0" y1="0" x2="1" y2="0">
<stop offset="0%" stop-color="#3e3e5e"/>
<stop offset="50%" stop-color="#4a4a6a"/>
<stop offset="100%" stop-color="#3e3e5e"/>
</linearGradient>
<linearGradient id="panelGrad" x1="0" y1="0" x2="0" y2="1">
<stop offset="0%" stop-color="#1a1a2e"/>
<stop offset="100%" stop-color="#12122a"/>
</linearGradient>
<linearGradient id="bezelGrad" x1="0" y1="0" x2="0" y2="1">
<stop offset="0%" stop-color="#3a3a5a"/>
<stop offset="100%" stop-color="#2a2a4a"/>
</linearGradient>
<linearGradient id="ventGrad" x1="0" y1="0" x2="1" y2="0">
<stop offset="0%" stop-color="#1a1a2e"/>
<stop offset="50%" stop-color="#2e2e4e"/>
<stop offset="100%" stop-color="#1a1a2e"/>
</linearGradient>
<linearGradient id="pipeGrad" x1="0" y1="0" x2="1" y2="0">
<stop offset="0%" stop-color="#413fd6" stop-opacity="0.6"/>
<stop offset="50%" stop-color="#5efae4" stop-opacity="0.4"/>
<stop offset="100%" stop-color="#413fd6" stop-opacity="0.6"/>
</linearGradient>
<linearGradient id="pipeGradV" x1="0" y1="0" x2="0" y2="1">
<stop offset="0%" stop-color="#413fd6" stop-opacity="0.6"/>
<stop offset="50%" stop-color="#5efae4" stop-opacity="0.4"/>
<stop offset="100%" stop-color="#413fd6" stop-opacity="0.6"/>
</linearGradient>
<linearGradient id="cableGrad" x1="0" y1="0" x2="1" y2="1">
<stop offset="0%" stop-color="#5efae4" stop-opacity="0.5"/>
<stop offset="100%" stop-color="#413fd6" stop-opacity="0.5"/>
</linearGradient>
<linearGradient id="footGrad" x1="0" y1="0" x2="0" y2="1">
<stop offset="0%" stop-color="#3a3a5a"/>
<stop offset="100%" stop-color="#2a2a4a"/>
</linearGradient>
<radialGradient id="dialGlow" cx="50%" cy="50%" r="50%">
<stop offset="0%" stop-color="#5efae4" stop-opacity="0.3"/>
<stop offset="70%" stop-color="#5efae4" stop-opacity="0.05"/>
<stop offset="100%" stop-color="#5efae4" stop-opacity="0"/>
</radialGradient>
<radialGradient id="dialGlowBlue" cx="50%" cy="50%" r="50%">
<stop offset="0%" stop-color="#413fd6" stop-opacity="0.3"/>
<stop offset="70%" stop-color="#413fd6" stop-opacity="0.05"/>
<stop offset="100%" stop-color="#413fd6" stop-opacity="0"/>
</radialGradient>
<radialGradient id="ledGlow" cx="50%" cy="50%" r="50%">
<stop offset="0%" stop-color="#5efae4" stop-opacity="0.9"/>
<stop offset="50%" stop-color="#5efae4" stop-opacity="0.3"/>
<stop offset="100%" stop-color="#5efae4" stop-opacity="0"/>
</radialGradient>
<radialGradient id="ledRed" cx="50%" cy="50%" r="50%">
<stop offset="0%" stop-color="#ff4444" stop-opacity="0.9"/>
<stop offset="50%" stop-color="#ff4444" stop-opacity="0.3"/>
<stop offset="100%" stop-color="#ff4444" stop-opacity="0"/>
</radialGradient>
<radialGradient id="ledAmber" cx="50%" cy="50%" r="50%">
<stop offset="0%" stop-color="#c4a635" stop-opacity="0.9"/>
<stop offset="50%" stop-color="#c4a635" stop-opacity="0.3"/>
<stop offset="100%" stop-color="#c4a635" stop-opacity="0"/>
</radialGradient>
<radialGradient id="screenGlow" cx="50%" cy="50%" r="50%">
<stop offset="0%" stop-color="#5efae4" stop-opacity="0.15"/>
<stop offset="100%" stop-color="#5efae4" stop-opacity="0"/>
</radialGradient>
<radialGradient id="shadowGrad" cx="50%" cy="0%" r="80%">
<stop offset="0%" stop-color="#000" stop-opacity="0.4"/>
<stop offset="100%" stop-color="#000" stop-opacity="0"/>
</radialGradient>
<filter id="dropShadow">
<feDropShadow dx="0" dy="6" stdDeviation="6" flood-color="#000" flood-opacity="0.7"/>
</filter>
<filter id="innerShadow">
<feGaussianBlur stdDeviation="3" result="blur"/>
<feOffset dx="0" dy="2"/>
<feComposite operator="out" in="SourceGraphic"/>
<feComponentTransfer>
<feFuncA type="linear" slope="0.5"/>
</feComponentTransfer>
<feBlend in="SourceGraphic" mode="normal"/>
</filter>
<filter id="glowFilter">
<feGaussianBlur stdDeviation="2"/>
</filter>
<filter id="glowSmallFilter">
<feGaussianBlur stdDeviation="1"/>
</filter>
</defs>
<rect width="400" height="300" fill="url(#bgGrad)"/>
<ellipse cx="200" cy="280" rx="160" ry="20" fill="url(#shadowGrad)"/>
<rect x="60" y="55" width="280" height="200" rx="8" fill="url(#machineBody)" filter="url(#dropShadow)"/>
<rect x="60" y="55" width="280" height="8" rx="8" fill="url(#machineHighlight)"/>
<rect x="60" y="58" width="280" height="3" fill="#5efae4" opacity="0.08"/>
<rect x="65" y="68" width="270" height="3" fill="#413fd6" opacity="0.15"/>
<rect x="60" y="248" width="280" height="7" rx="3" fill="#1a1a2e"/>
<rect x="55" y="250" width="290" height="6" rx="3" fill="#3a3a5a"/>
<rect x="60" y="256" width="280" height="4" fill="#2a2a4a"/>
<rect x="70" y="72" width="80" height="55" rx="4" fill="url(#panelGrad)" stroke="#5efae4" stroke-width="0.8" stroke-opacity="0.3"/>
<rect x="70" y="72" width="80" height="14" rx="4" fill="#5efae4" opacity="0.08"/>
<text x="74" y="82" font-family="Arial,Helvetica,sans-serif" font-size="7" fill="#5efae4" opacity="0.7">DISPLAY</text>
<rect x="75" y="90" width="70" height="32" rx="2" fill="#0a0a1a" stroke="#5efae4" stroke-width="0.5" stroke-opacity="0.4"/>
<rect x="77" y="92" width="66" height="28" rx="1" fill="url(#screenGlow)"/>
<text x="82" y="110" font-family="Arial,Helvetica,sans-serif" font-size="16" font-weight="bold" fill="#5efae4" opacity="0.95">94.2%</text>
<line x1="80" y1="118" x2="140" y2="118" stroke="#5efae4" stroke-width="0.3" opacity="0.3"/>
<circle cx="140" cy="96" r="2" fill="#5efae4" opacity="0.5"/>
<rect x="160" y="72" width="80" height="55" rx="4" fill="url(#panelGrad)" stroke="#413fd6" stroke-width="0.8" stroke-opacity="0.3"/>
<rect x="160" y="72" width="80" height="14" rx="4" fill="#413fd6" opacity="0.08"/>
<text x="164" y="82" font-family="Arial,Helvetica,sans-serif" font-size="7" fill="#413fd6" opacity="0.7">GAUGE A</text>
<circle cx="200" cy="107" r="18" fill="url(#dialGlow)" opacity="0.5"/>
<circle cx="200" cy="107" r="18" fill="none" stroke="#3a3a5a" stroke-width="2.5"/>
<circle cx="200" cy="107" r="16" fill="none" stroke="#5efae4" stroke-width="0.8" stroke-opacity="0.2"/>
<path d="M188 107 A12 12 0 0 1 212 107" fill="none" stroke="#5efae4" stroke-width="2.5" stroke-opacity="0.8"/>
<path d="M212 107 A12 12 0 0 1 188 107" fill="none" stroke="#3a3a5a" stroke-width="2" stroke-opacity="0.5"/>
<circle cx="200" cy="107" r="6" fill="#1a1a2e" stroke="#5efae4" stroke-width="1" stroke-opacity="0.5"/>
<circle cx="200" cy="107" r="2" fill="#5efae4" opacity="0.9"/>
<line x1="200" y1="107" x2="208" y2="100" stroke="#5efae4" stroke-width="1.2" stroke-opacity="0.9"/>
<line x1="188" y1="107" x2="192" y2="107" stroke="#5efae4" stroke-width="0.5" opacity="0.4"/>
<line x1="208" y1="107" x2="212" y2="107" stroke="#5efae4" stroke-width="0.5" opacity="0.4"/>
<line x1="200" y1="91" x2="200" y2="95" stroke="#5efae4" stroke-width="0.5" opacity="0.4"/>
<line x1="200" y1="119" x2="200" y2="123" stroke="#5efae4" stroke-width="0.5" opacity="0.4"/>
<rect x="250" y="72" width="80" height="55" rx="4" fill="url(#panelGrad)" stroke="#5efae4" stroke-width="0.8" stroke-opacity="0.3"/>
<rect x="250" y="72" width="80" height="14" rx="4" fill="#5efae4" opacity="0.08"/>
<text x="254" y="82" font-family="Arial,Helvetica,sans-serif" font-size="7" fill="#5efae4" opacity="0.7">GAUGE B</text>
<circle cx="290" cy="107" r="18" fill="url(#dialGlowBlue)" opacity="0.5"/>
<circle cx="290" cy="107" r="18" fill="none" stroke="#3a3a5a" stroke-width="2.5"/>
<circle cx="290" cy="107" r="16" fill="none" stroke="#413fd6" stroke-width="0.8" stroke-opacity="0.2"/>
<path d="M278 107 A12 12 0 0 1 302 107" fill="none" stroke="#413fd6" stroke-width="2.5" stroke-opacity="0.8"/>
<path d="M302 107 A12 12 0 0 1 278 107" fill="none" stroke="#3a3a5a" stroke-width="2" stroke-opacity="0.5"/>
<circle cx="290" cy="107" r="6" fill="#1a1a2e" stroke="#413fd6" stroke-width="1" stroke-opacity="0.5"/>
<circle cx="290" cy="107" r="2" fill="#413fd6" opacity="0.9"/>
<line x1="290" y1="107" x2="296" y2="100" stroke="#413fd6" stroke-width="1.2" stroke-opacity="0.9"/>
<line x1="278" y1="107" x2="282" y2="107" stroke="#413fd6" stroke-width="0.5" opacity="0.4"/>
<line x1="298" y1="107" x2="302" y2="107" stroke="#413fd6" stroke-width="0.5" opacity="0.4"/>
<line x1="290" y1="91" x2="290" y2="95" stroke="#413fd6" stroke-width="0.5" opacity="0.4"/>
<line x1="290" y1="119" x2="290" y2="123" stroke="#413fd6" stroke-width="0.5" opacity="0.4"/>
<rect x="70" y="134" width="80" height="60" rx="3" fill="url(#panelGrad)" stroke="#413fd6" stroke-width="0.5" stroke-opacity="0.3"/>
<rect x="70" y="134" width="80" height="12" rx="3" fill="#413fd6" opacity="0.1"/>
<text x="74" y="143" font-family="Arial,Helvetica,sans-serif" font-size="6" fill="#413fd6" opacity="0.6">CONTROLS</text>
<rect x="76" y="150" width="14" height="14" rx="2" fill="#3a3a5a" stroke="#5efae4" stroke-width="0.5" stroke-opacity="0.4"/>
<text x="78" y="160" font-family="Arial,Helvetica,sans-serif" font-size="5" fill="#5efae4" opacity="0.5">ON</text>
<rect x="96" y="150" width="14" height="14" rx="2" fill="#3a3a5a" stroke="#d44" stroke-width="0.5" stroke-opacity="0.4"/>
<text x="98" y="160" font-family="Arial,Helvetica,sans-serif" font-size="5" fill="#d44" opacity="0.5">OFF</text>
<rect x="116" y="150" width="14" height="14" rx="2" fill="#3a3a5a" stroke="#c4a635" stroke-width="0.5" stroke-opacity="0.4"/>
<text x="117" y="160" font-family="Arial,Helvetica,sans-serif" font-size="5" fill="#c4a635" opacity="0.5">RST</text>
<rect x="76" y="170" width="68" height="8" rx="1" fill="#2a2a4a"/>
<rect x="76" y="170" width="50" height="8" rx="1" fill="#5efae4" opacity="0.5"/>
<text x="78" y="177" font-family="Arial,Helvetica,sans-serif" font-size="5" fill="#1a1a2e" opacity="0.7">SPEED</text>
<text x="136" y="177" font-family="Arial,Helvetica,sans-serif" font-size="5" fill="#5efae4" opacity="0.6">72%</text>
<rect x="76" y="182" width="68" height="8" rx="1" fill="#2a2a4a"/>
<rect x="76" y="182" width="34" height="8" rx="1" fill="#c4a635" opacity="0.5"/>
<text x="78" y="189" font-family="Arial,Helvetica,sans-serif" font-size="5" fill="#1a1a2e" opacity="0.7">LOAD</text>
<rect x="160" y="134" width="80" height="60" rx="3" fill="url(#panelGrad)" stroke="#5efae4" stroke-width="0.5" stroke-opacity="0.3"/>
<rect x="160" y="134" width="80" height="12" rx="3" fill="#5efae4" opacity="0.1"/>
<text x="164" y="143" font-family="Arial,Helvetica,sans-serif" font-size="6" fill="#5efae4" opacity="0.6">INDICATORS</text>
<circle cx="180" cy="157" r="11" fill="url(#ledGlow)" opacity="0.5"/>
<circle cx="180" cy="157" r="5" fill="#3a3a5a" stroke="#5efae4" stroke-width="1"/>
<circle cx="180" cy="157" r="3" fill="#5efae4" opacity="0.9" filter="url(#glowSmallFilter)"/>
<text x="177" y="175" font-family="Arial,Helvetica,sans-serif" font-size="5" fill="#5efae4" opacity="0.6">PWR</text>
<circle cx="200" cy="157" r="11" fill="url(#ledAmber)" opacity="0.4"/>
<circle cx="200" cy="157" r="5" fill="#3a3a5a" stroke="#c4a635" stroke-width="1"/>
<circle cx="200" cy="157" r="3" fill="#c4a635" opacity="0.8" filter="url(#glowSmallFilter)"/>
<text x="197" y="175" font-family="Arial,Helvetica,sans-serif" font-size="5" fill="#c4a635" opacity="0.6">STBY</text>
<circle cx="220" cy="157" r="11" fill="url(#ledRed)" opacity="0.3"/>
<circle cx="220" cy="157" r="5" fill="#3a3a5a" stroke="#d44" stroke-width="1"/>
<circle cx="220" cy="157" r="3" fill="#d44" opacity="0.7"/>
<text x="219" y="175" font-family="Arial,Helvetica,sans-serif" font-size="5" fill="#d44" opacity="0.6">ALM</text>
<circle cx="180" cy="185" r="3" fill="#5efae4" opacity="0.4"/>
<circle cx="190" cy="185" r="3" fill="#413fd6" opacity="0.4"/>
<circle cx="200" cy="185" r="3" fill="#c4a635" opacity="0.4"/>
<circle cx="210" cy="185" r="3" fill="#5efae4" opacity="0.3"/>
<circle cx="220" cy="185" r="3" fill="#413fd6" opacity="0.3"/>
<circle cx="230" cy="185" r="3" fill="#d44" opacity="0.3"/>
<rect x="250" y="134" width="80" height="60" rx="3" fill="url(#panelGrad)" stroke="#413fd6" stroke-width="0.5" stroke-opacity="0.3"/>
<rect x="250" y="134" width="80" height="12" rx="3" fill="#413fd6" opacity="0.1"/>
<text x="254" y="143" font-family="Arial,Helvetica,sans-serif" font-size="6" fill="#413fd6" opacity="0.6">COMMS</text>
<rect x="256" y="150" width="68" height="8" rx="1" fill="#2a2a4a"/>
<rect x="256" y="150" width="68" height="8" rx="1" fill="#5efae4" opacity="0.3"/>
<text x="258" y="156" font-family="Arial,Helvetica,sans-serif" font-size="5" fill="#1a1a2e" opacity="0.6">SIGNAL</text>
<rect x="256" y="163" width="68" height="12" rx="2" fill="#1a1a2e" stroke="#5efae4" stroke-width="0.3" stroke-opacity="0.3"/>
<text x="260" y="172" font-family="Arial,Helvetica,sans-serif" font-size="6" fill="#5efae4" opacity="0.7">192.168.1.45</text>
<rect x="256" y="179" width="68" height="12" rx="2" fill="#1a1a2e" stroke="#5efae4" stroke-width="0.3" stroke-opacity="0.3"/>
<text x="260" y="188" font-family="Arial,Helvetica,sans-serif" font-size="6" fill="#5efae4" opacity="0.7">00:1A:2B:3C:4D</text>
<rect x="70" y="200" width="260" height="45" rx="4" fill="url(#panelGrad)" stroke="#5efae4" stroke-width="0.5" stroke-opacity="0.2"/>
<rect x="70" y="200" width="260" height="10" rx="4" fill="#5efae4" opacity="0.06"/>
<text x="74" y="208" font-family="Arial,Helvetica,sans-serif" font-size="6" fill="#5efae4" opacity="0.5">VENTILATION GRILLES</text>
<rect x="78" y="214" width="20" height="3" rx="1" fill="url(#ventGrad)" opacity="0.6"/>
<rect x="78" y="220" width="20" height="3" rx="1" fill="url(#ventGrad)" opacity="0.6"/>
<rect x="78" y="226" width="20" height="3" rx="1" fill="url(#ventGrad)" opacity="0.6"/>
<rect x="78" y="232" width="20" height="3" rx="1" fill="url(#ventGrad)" opacity="0.6"/>
<rect x="78" y="238" width="20" height="3" rx="1" fill="url(#ventGrad)" opacity="0.6"/>
<rect x="106" y="214" width="20" height="3" rx="1" fill="url(#ventGrad)" opacity="0.6"/>
<rect x="106" y="220" width="20" height="3" rx="1" fill="url(#ventGrad)" opacity="0.6"/>
<rect x="106" y="226" width="20" height="3" rx="1" fill="url(#ventGrad)" opacity="0.6"/>
<rect x="106" y="232" width="20" height="3" rx="1" fill="url(#ventGrad)" opacity="0.6"/>
<rect x="106" y="238" width="20" height="3" rx="1" fill="url(#ventGrad)" opacity="0.6"/>
<rect x="134" y="214" width="20" height="3" rx="1" fill="url(#ventGrad)" opacity="0.6"/>
<rect x="134" y="220" width="20" height="3" rx="1" fill="url(#ventGrad)" opacity="0.6"/>
<rect x="134" y="226" width="20" height="3" rx="1" fill="url(#ventGrad)" opacity="0.6"/>
<rect x="134" y="232" width="20" height="3" rx="1" fill="url(#ventGrad)" opacity="0.6"/>
<rect x="134" y="238" width="20" height="3" rx="1" fill="url(#ventGrad)" opacity="0.6"/>
<rect x="162" y="214" width="20" height="3" rx="1" fill="url(#ventGrad)" opacity="0.6"/>
<rect x="162" y="220" width="20" height="3" rx="1" fill="url(#ventGrad)" opacity="0.6"/>
<rect x="162" y="226" width="20" height="3" rx="1" fill="url(#ventGrad)" opacity="0.6"/>
<rect x="162" y="232" width="20" height="3" rx="1" fill="url(#ventGrad)" opacity="0.6"/>
<rect x="162" y="238" width="20" height="3" rx="1" fill="url(#ventGrad)" opacity="0.6"/>
<rect x="190" y="214" width="20" height="3" rx="1" fill="url(#ventGrad)" opacity="0.6"/>
<rect x="190" y="220" width="20" height="3" rx="1" fill="url(#ventGrad)" opacity="0.6"/>
<rect x="190" y="226" width="20" height="3" rx="1" fill="url(#ventGrad)" opacity="0.6"/>
<rect x="190" y="232" width="20" height="3" rx="1" fill="url(#ventGrad)" opacity="0.6"/>
<rect x="190" y="238" width="20" height="3" rx="1" fill="url(#ventGrad)" opacity="0.6"/>
<rect x="218" y="214" width="20" height="3" rx="1" fill="url(#ventGrad)" opacity="0.6"/>
<rect x="218" y="220" width="20" height="3" rx="1" fill="url(#ventGrad)" opacity="0.6"/>
<rect x="218" y="226" width="20" height="3" rx="1" fill="url(#ventGrad)" opacity="0.6"/>
<rect x="218" y="232" width="20" height="3" rx="1" fill="url(#ventGrad)" opacity="0.6"/>
<rect x="218" y="238" width="20" height="3" rx="1" fill="url(#ventGrad)" opacity="0.6"/>
<rect x="246" y="214" width="20" height="3" rx="1" fill="url(#ventGrad)" opacity="0.6"/>
<rect x="246" y="220" width="20" height="3" rx="1" fill="url(#ventGrad)" opacity="0.6"/>
<rect x="246" y="226" width="20" height="3" rx="1" fill="url(#ventGrad)" opacity="0.6"/>
<rect x="246" y="232" width="20" height="3" rx="1" fill="url(#ventGrad)" opacity="0.6"/>
<rect x="246" y="238" width="20" height="3" rx="1" fill="url(#ventGrad)" opacity="0.6"/>
<rect x="274" y="214" width="20" height="3" rx="1" fill="url(#ventGrad)" opacity="0.6"/>
<rect x="274" y="220" width="20" height="3" rx="1" fill="url(#ventGrad)" opacity="0.6"/>
<rect x="274" y="226" width="20" height="3" rx="1" fill="url(#ventGrad)" opacity="0.6"/>
<rect x="274" y="232" width="20" height="3" rx="1" fill="url(#ventGrad)" opacity="0.6"/>
<rect x="274" y="238" width="20" height="3" rx="1" fill="url(#ventGrad)" opacity="0.6"/>
<rect x="302" y="214" width="20" height="3" rx="1" fill="url(#ventGrad)" opacity="0.6"/>
<rect x="302" y="220" width="20" height="3" rx="1" fill="url(#ventGrad)" opacity="0.6"/>
<rect x="302" y="226" width="20" height="3" rx="1" fill="url(#ventGrad)" opacity="0.6"/>
<rect x="302" y="232" width="20" height="3" rx="1" fill="url(#ventGrad)" opacity="0.6"/>
<rect x="302" y="238" width="20" height="3" rx="1" fill="url(#ventGrad)" opacity="0.6"/>
<rect x="40" y="70" width="18" height="40" rx="3" fill="url(#pipeGradV)"/>
<rect x="40" y="65" width="18" height="5" fill="#5efae4" opacity="0.4"/>
<rect x="36" y="70" width="4" height="40" fill="#413fd6" opacity="0.3"/>
<rect x="342" y="80" width="18" height="50" rx="3" fill="url(#pipeGradV)"/>
<rect x="342" y="75" width="18" height="5" fill="#5efae4" opacity="0.4"/>
<rect x="360" y="75" width="4" height="55" fill="#413fd6" opacity="0.3"/>
<path d="M40 110 Q40 130 60 130 L70 130" fill="none" stroke="url(#pipeGrad)" stroke-width="4" stroke-opacity="0.5"/>
<path d="M342 130 Q342 140 330 140 L200 140 Q190 140 190 150 L190 160" fill="none" stroke="url(#cableGrad)" stroke-width="2.5" stroke-opacity="0.5"/>
<path d="M342 135 Q342 150 320 150 L250 150 Q240 150 240 160" fill="none" stroke="url(#cableGrad)" stroke-width="2" stroke-opacity="0.4"/>
<path d="M190 70 Q190 50 200 50 Q220 50 220 55 L220 70" fill="none" stroke="url(#cableGrad)" stroke-width="2" stroke-opacity="0.4"/>
<circle cx="40" cy="80" r="2" fill="#5efae4" opacity="0.5"/>
<circle cx="40" cy="90" r="2" fill="#5efae4" opacity="0.4"/>
<circle cx="40" cy="100" r="2" fill="#5efae4" opacity="0.3"/>
<circle cx="350" cy="90" r="2" fill="#5efae4" opacity="0.4"/>
<circle cx="350" cy="100" r="2" fill="#5efae4" opacity="0.3"/>
<circle cx="350" cy="110" r="2" fill="#5efae4" opacity="0.3"/>
<rect x="65" y="260" width="14" height="8" rx="2" fill="url(#footGrad)"/>
<rect x="115" y="260" width="14" height="8" rx="2" fill="url(#footGrad)"/>
<rect x="195" y="260" width="14" height="8" rx="2" fill="url(#footGrad)"/>
<rect x="270" y="260" width="14" height="8" rx="2" fill="url(#footGrad)"/>
<rect x="321" y="260" width="14" height="8" rx="2" fill="url(#footGrad)"/>
<rect x="65" y="268" width="14" height="4" fill="#1a1a2e"/>
<rect x="115" y="268" width="14" height="4" fill="#1a1a2e"/>
<rect x="195" y="268" width="14" height="4" fill="#1a1a2e"/>
<rect x="270" y="268" width="14" height="4" fill="#1a1a2e"/>
<rect x="321" y="268" width="14" height="4" fill="#1a1a2e"/>
<rect x="60" y="56" width="280" height="2" fill="#5efae4" opacity="0.12"/>
<rect x="60" y="248" width="280" height="2" fill="#413fd6" opacity="0.2"/>
<circle cx="80" cy="62" r="1.5" fill="#5efae4" opacity="0.6"/>
<circle cx="320" cy="62" r="1.5" fill="#5efae4" opacity="0.6"/>
<circle cx="200" cy="62" r="1.5" fill="#413fd6" opacity="0.5"/>
<line x1="70" y1="72" x2="330" y2="72" stroke="#5efae4" stroke-width="0.3" opacity="0.1"/>
<line x1="70" y1="130" x2="330" y2="130" stroke="#5efae4" stroke-width="0.3" opacity="0.1"/>
<rect x="60" y="253" width="280" height="3" fill="#5efae4" opacity="0.03"/>
</svg>
