<svg xmlns="http://www.w3.org/2000/svg" viewBox="0 0 1200 680"><defs><linearGradient id="bg" x1="0" x2="1" y1="0" y2="1"><stop stop-color="#fff8ed"/><stop offset="1" stop-color="#edf7ff"/></linearGradient><filter id="shadow"><feDropShadow dx="0" dy="16" stdDeviation="16" flood-color="#774f00" flood-opacity=".15"/></filter></defs><rect width="1200" height="680" fill="url(#bg)"/><path d="M80 470 410 305 1110 445 770 618z" fill="#fff" stroke="#c7c4d7" stroke-width="3"/><g opacity=".26" stroke="#986500"><path d="M145 468c170-95 240 84 395-5s255 74 490-22" fill="none" stroke-width="8"/><path d="M150 515c170-95 240 84 395-5s255 74 490-22" fill="none" stroke-width="8"/></g><g filter="url(#shadow)"><rect x="140" y="230" width="160" height="135" rx="20" fill="#413fd6"/><circle cx="220" cy="298" r="50" fill="#ffba4b"/><rect x="355" y="190" width="250" height="170" rx="24" fill="#f4f2ff" stroke="#413fd6" stroke-width="8"/><rect x="395" y="235" width="170" height="74" rx="16" fill="#5efae4"/><rect x="690" y="215" width="170" height="155" rx="20" fill="#413fd6"/><circle cx="775" cy="292" r="55" fill="#c1c1ff"/><rect x="920" y="240" width="115" height="138" rx="16" fill="#986500"/><rect x="948" y="202" width="58" height="70" rx="16" fill="#ffba4b"/></g><g stroke="#5efae4" stroke-width="18" stroke-linecap="round"><path d="M115 420c120-110 210 110 330 0s220 110 360 0 190-55 285 8" fill="none"/><path d="M115 455c120-110 210 110 330 0s220 110 360 0 190-55 285 8" fill="none" opacity=".72"/></g><g fill="#ffffff" stroke="#c7c4d7"><rect x="320" y="415" width="110" height="72" rx="12"/><rect x="455" y="410" width="110" height="72" rx="12"/><rect x="590" y="414" width="110" height="72" rx="12"/></g><g fill="#15d8c3"><circle cx="375" cy="450" r="14"/><circle cx="510" cy="445" r="14"/><circle cx="645" cy="449" r="14"/></g><text x="70" y="92" font-family="Inter,Arial" font-size="48" font-weight="900" fill="#191a28">Ahmedabad Textile & Chemical</text><text x="72" y="135" font-family="Inter,Arial" font-size="25" fill="#464555">Dyeing range, dosing skids, ETP monitoring loops</text></svg>
