<svg xmlns="http://www.w3.org/2000/svg" viewBox="0 0 1200 680"><defs><linearGradient id="bg" x1="0" x2="1"><stop stop-color="#fffaf2"/><stop offset="1" stop-color="#f4f2ff"/></linearGradient><filter id="shadow"><feDropShadow dx="0" dy="16" stdDeviation="16" flood-color="#774f00" flood-opacity=".14"/></filter></defs><rect width="1200" height="680" fill="url(#bg)"/><path d="M75 482 410 315 1125 445 760 625z" fill="#fff" stroke="#c7c4d7" stroke-width="3"/><g filter="url(#shadow)"><rect x="135" y="215" width="240" height="180" rx="24" fill="#413fd6"/><rect x="170" y="250" width="64" height="54" rx="8" fill="#ffba4b"/><rect x="250" y="250" width="64" height="54" rx="8" fill="#5efae4"/><rect x="170" y="320" width="64" height="54" rx="8" fill="#c1c1ff"/><rect x="250" y="320" width="64" height="54" rx="8" fill="#ffba4b"/><rect x="465" y="205" width="250" height="190" rx="24" fill="#f4f2ff" stroke="#413fd6" stroke-width="8"/><path d="M505 335h170" stroke="#413fd6" stroke-width="16" stroke-linecap="round"/><path d="M505 280h170" stroke="#5efae4" stroke-width="16" stroke-linecap="round"/><rect x="795" y="250" width="190" height="90" rx="18" fill="#986500"/><rect x="825" y="220" width="90" height="60" rx="14" fill="#ffba4b"/></g><g fill="#191a28"><circle cx="835" cy="358" r="22"/><circle cx="955" cy="358" r="22"/></g><g stroke="#5efae4" stroke-width="14" stroke-linecap="round" opacity=".85"><path d="M160 455h770"/><path d="M215 505h610"/></g><g fill="#ffffff" stroke="#c7c4d7"><rect x="140" y="450" width="90" height="64" rx="10"/><rect x="260" y="450" width="90" height="64" rx="10"/><rect x="380" y="450" width="90" height="64" rx="10"/><rect x="500" y="450" width="90" height="64" rx="10"/><rect x="620" y="450" width="90" height="64" rx="10"/></g><text x="70" y="92" font-family="Inter,Arial" font-size="48" font-weight="900" fill="#191a28">Nagpur Logistics Hub</text><text x="72" y="135" font-family="Inter,Arial" font-size="25" fill="#464555">ASRS aisles, sorters, AGV charging and dock flow</text></svg>
