<svg xmlns="http://www.w3.org/2000/svg" width="200" height="50" viewBox="0 0 200 50">
  <defs>
    <linearGradient id="lg" x1="0" y1="0" x2="1" y2="1">
      <stop offset="0%" stop-color="#413fd6"/>
      <stop offset="100%" stop-color="#5efae4"/>
    </linearGradient>
  </defs>
  <g transform="translate(4,25)">
    <circle r="17" fill="none" stroke="#413fd6" stroke-width="1.5"/>
    <circle r="12" fill="none" stroke="#5efae4" stroke-width="1"/>
    <circle r="3" fill="#413fd6"/>
    <path d="M-17 0 A17 17 0 0 1 17 0" fill="none" stroke="#5efae4" stroke-width="0.8" opacity="0.5" transform="rotate(45)"/>
    <path d="M-17 0 A17 17 0 0 1 17 0" fill="none" stroke="#5efae4" stroke-width="0.8" opacity="0.5" transform="rotate(-45)"/>
    <path d="M-17 0 A17 17 0 0 0 17 0" fill="none" stroke="#5efae4" stroke-width="0.8" opacity="0.5" transform="rotate(135)"/>
    <path d="M-17 0 A17 17 0 0 0 17 0" fill="none" stroke="#5efae4" stroke-width="0.8" opacity="0.5" transform="rotate(-135)"/>
    <rect x="-4" y="-1" width="8" height="3" rx="1.5" fill="#413fd6" transform="rotate(45)"/>
    <rect x="-4" y="-1" width="8" height="3" rx="1.5" fill="#413fd6" transform="rotate(-45)"/>
    <rect x="-4" y="-1" width="8" height="3" rx="1.5" fill="#413fd6" transform="rotate(135)"/>
    <rect x="-4" y="-1" width="8" height="3" rx="1.5" fill="#413fd6" transform="rotate(-135)"/>
  </g>
  <text x="42" y="33" font-family="Arial,Helvetica,sans-serif" font-weight="700" font-size="26" fill="#413fd6">Yantra</text>
  <text x="128" y="33" font-family="Arial,Helvetica,sans-serif" font-weight="700" font-size="26" fill="#5efae4">Mitra</text>
</svg>