<svg xmlns="http://www.w3.org/2000/svg" width="800" height="400" viewBox="0 0 800 400">
<defs>
<linearGradient id="skyGrad" x1="0" y1="0" x2="0" y2="1">
<stop offset="0%" stop-color="#1a1a2e"/>
<stop offset="40%" stop-color="#16213e"/>
<stop offset="100%" stop-color="#0f3460"/>
</linearGradient>
<linearGradient id="floorGrad" x1="0" y1="0" x2="0" y2="1">
<stop offset="0%" stop-color="#2a2a4a"/>
<stop offset="100%" stop-color="#1a1a2e"/>
</linearGradient>
<linearGradient id="wallLeft" x1="0" y1="0" x2="1" y2="0">
<stop offset="0%" stop-color="#413fd6"/>
<stop offset="50%" stop-color="#3a38c4"/>
<stop offset="100%" stop-color="#3230b0"/>
</linearGradient>
<linearGradient id="wallRight" x1="0" y1="0" x2="1" y2="0">
<stop offset="0%" stop-color="#5efae4"/>
<stop offset="50%" stop-color="#4de0cc"/>
<stop offset="100%" stop-color="#3cc6b4"/>
</linearGradient>
<linearGradient id="wallFront" x1="0" y1="0" x2="0" y2="1">
<stop offset="0%" stop-color="#3a38c4"/>
<stop offset="100%" stop-color="#2a2894"/>
</linearGradient>
<linearGradient id="roofLeft" x1="0" y1="0" x2="1" y2="1">
<stop offset="0%" stop-color="#4a48d6"/>
<stop offset="100%" stop-color="#3a38c4"/>
</linearGradient>
<linearGradient id="roofRight" x1="0" y1="0" x2="1" y2="1">
<stop offset="0%" stop-color="#6efae4"/>
<stop offset="100%" stop-color="#5efae4"/>
</linearGradient>
<linearGradient id="roofFront" x1="0" y1="0" x2="0" y2="1">
<stop offset="0%" stop-color="#4a48d6"/>
<stop offset="100%" stop-color="#3a38c4"/>
</linearGradient>
<linearGradient id="chimneyGrad" x1="0" y1="0" x2="1" y2="0">
<stop offset="0%" stop-color="#4a4a6a"/>
<stop offset="100%" stop-color="#3a3a5a"/>
</linearGradient>
<linearGradient id="smokeGrad" x1="0" y1="1" x2="0" y2="0">
<stop offset="0%" stop-color="#5efae4" stop-opacity="0.4"/>
<stop offset="50%" stop-color="#5efae4" stop-opacity="0.15"/>
<stop offset="100%" stop-color="#5efae4" stop-opacity="0"/>
</linearGradient>
<linearGradient id="beltGrad" x1="0" y1="0" x2="1" y2="0">
<stop offset="0%" stop-color="#3a3a5a"/>
<stop offset="50%" stop-color="#5a5a7a"/>
<stop offset="100%" stop-color="#3a3a5a"/>
</linearGradient>
<linearGradient id="machineBody" x1="0" y1="0" x2="0" y2="1">
<stop offset="0%" stop-color="#4a4a6a"/>
<stop offset="50%" stop-color="#3a3a5a"/>
<stop offset="100%" stop-color="#2a2a4a"/>
</linearGradient>
<linearGradient id="machinePanel" x1="0" y1="0" x2="0" y2="1">
<stop offset="0%" stop-color="#2a2a4a"/>
<stop offset="100%" stop-color="#1a1a2e"/>
</linearGradient>
<linearGradient id="forkliftBody" x1="0" y1="0" x2="0" y2="1">
<stop offset="0%" stop-color="#5a5a7a"/>
<stop offset="100%" stop-color="#3a3a5a"/>
</linearGradient>
<linearGradient id="pipeH" x1="0" y1="0" x2="1" y2="0">
<stop offset="0%" stop-color="#5efae4" stop-opacity="0.6"/>
<stop offset="50%" stop-color="#5efae4" stop-opacity="0.3"/>
<stop offset="100%" stop-color="#5efae4" stop-opacity="0.6"/>
</linearGradient>
<linearGradient id="pipeV" x1="0" y1="0" x2="0" y2="1">
<stop offset="0%" stop-color="#5efae4" stop-opacity="0.6"/>
<stop offset="50%" stop-color="#5efae4" stop-opacity="0.3"/>
<stop offset="100%" stop-color="#5efae4" stop-opacity="0.6"/>
</linearGradient>
<radialGradient id="glowGlow" cx="50%" cy="50%" r="50%">
<stop offset="0%" stop-color="#5efae4" stop-opacity="1"/>
<stop offset="30%" stop-color="#5efae4" stop-opacity="0.6"/>
<stop offset="100%" stop-color="#5efae4" stop-opacity="0"/>
</radialGradient>
<radialGradient id="sensorGlow" cx="50%" cy="50%" r="50%">
<stop offset="0%" stop-color="#5efae4" stop-opacity="0.8"/>
<stop offset="50%" stop-color="#5efae4" stop-opacity="0.2"/>
<stop offset="100%" stop-color="#5efae4" stop-opacity="0"/>
</radialGradient>
<radialGradient id="sensorGlow2" cx="50%" cy="50%" r="50%">
<stop offset="0%" stop-color="#413fd6" stop-opacity="0.6"/>
<stop offset="50%" stop-color="#413fd6" stop-opacity="0.15"/>
<stop offset="100%" stop-color="#413fd6" stop-opacity="0"/>
</radialGradient>
<linearGradient id="windowGlow" x1="0" y1="0" x2="0" y2="1">
<stop offset="0%" stop-color="#5efae4" stop-opacity="0.3"/>
<stop offset="100%" stop-color="#5efae4" stop-opacity="0.05"/>
</linearGradient>
<filter id="bigGlow">
<feGaussianBlur stdDeviation="6"/>
</filter>
<filter id="medGlow">
<feGaussianBlur stdDeviation="3"/>
</filter>
<filter id="smallGlow">
<feGaussianBlur stdDeviation="1.5"/>
</filter>
<filter id="shadowFilter">
<feDropShadow dx="2" dy="4" stdDeviation="4" flood-color="#000" flood-opacity="0.5"/>
</filter>
<linearGradient id="armGrad" x1="0" y1="0" x2="1" y2="1">
<stop offset="0%" stop-color="#5a5a7a"/>
<stop offset="100%" stop-color="#3a3a5a"/>
</linearGradient>
<linearGradient id="gridLine" x1="0" y1="0" x2="1" y2="1">
<stop offset="0%" stop-color="#413fd6" stop-opacity="0.3"/>
<stop offset="100%" stop-color="#5efae4" stop-opacity="0.15"/>
</linearGradient>
</defs>
<rect width="800" height="400" fill="url(#skyGrad)"/>
<rect x="0" y="280" width="800" height="120" fill="url(#floorGrad)"/>
<path d="M0 280 L800 280" stroke="#413fd6" stroke-width="1" opacity="0.4"/>
<path d="M0 282 L800 282" stroke="#5efae4" stroke-width="0.5" opacity="0.15"/>
<path d="M0 285 L800 285" stroke="#413fd6" stroke-width="0.5" opacity="0.1"/>
<g opacity="0.3">
<line x1="0" y1="290" x2="800" y2="290" stroke="#413fd6" stroke-width="0.3"/>
<line x1="0" y1="300" x2="800" y2="300" stroke="#413fd6" stroke-width="0.3"/>
<line x1="0" y1="310" x2="800" y2="310" stroke="#413fd6" stroke-width="0.3"/>
<line x1="0" y1="320" x2="800" y2="320" stroke="#413fd6" stroke-width="0.3"/>
<line x1="0" y1="330" x2="800" y2="330" stroke="#413fd6" stroke-width="0.3"/>
<line x1="0" y1="340" x2="800" y2="340" stroke="#413fd6" stroke-width="0.3"/>
<line x1="0" y1="350" x2="800" y2="350" stroke="#413fd6" stroke-width="0.3"/>
<line x1="0" y1="360" x2="800" y2="360" stroke="#413fd6" stroke-width="0.3"/>
<line x1="0" y1="370" x2="800" y2="370" stroke="#413fd6" stroke-width="0.3"/>
<line x1="0" y1="380" x2="800" y2="380" stroke="#413fd6" stroke-width="0.3"/>
<line x1="0" y1="390" x2="800" y2="390" stroke="#413fd6" stroke-width="0.3"/>
</g>
<g opacity="0.15">
<line x1="40" y1="280" x2="40" y2="400" stroke="#5efae4" stroke-width="0.3"/>
<line x1="80" y1="280" x2="80" y2="400" stroke="#5efae4" stroke-width="0.3"/>
<line x1="120" y1="280" x2="120" y2="400" stroke="#5efae4" stroke-width="0.3"/>
<line x1="160" y1="280" x2="160" y2="400" stroke="#5efae4" stroke-width="0.3"/>
<line x1="200" y1="280" x2="200" y2="400" stroke="#5efae4" stroke-width="0.3"/>
<line x1="240" y1="280" x2="240" y2="400" stroke="#5efae4" stroke-width="0.3"/>
<line x1="280" y1="280" x2="280" y2="400" stroke="#5efae4" stroke-width="0.3"/>
<line x1="320" y1="280" x2="320" y2="400" stroke="#5efae4" stroke-width="0.3"/>
<line x1="360" y1="280" x2="360" y2="400" stroke="#5efae4" stroke-width="0.3"/>
<line x1="400" y1="280" x2="400" y2="400" stroke="#5efae4" stroke-width="0.3"/>
<line x1="440" y1="280" x2="440" y2="400" stroke="#5efae4" stroke-width="0.3"/>
<line x1="480" y1="280" x2="480" y2="400" stroke="#5efae4" stroke-width="0.3"/>
<line x1="520" y1="280" x2="520" y2="400" stroke="#5efae4" stroke-width="0.3"/>
<line x1="560" y1="280" x2="560" y2="400" stroke="#5efae4" stroke-width="0.3"/>
<line x1="600" y1="280" x2="600" y2="400" stroke="#5efae4" stroke-width="0.3"/>
<line x1="640" y1="280" x2="640" y2="400" stroke="#5efae4" stroke-width="0.3"/>
<line x1="680" y1="280" x2="680" y2="400" stroke="#5efae4" stroke-width="0.3"/>
<line x1="720" y1="280" x2="720" y2="400" stroke="#5efae4" stroke-width="0.3"/>
<line x1="760" y1="280" x2="760" y2="400" stroke="#5efae4" stroke-width="0.3"/>
</g>
<rect x="50" y="160" width="140" height="120" fill="url(#wallFront)" rx="2" filter="url(#shadowFilter)"/>
<polygon points="50,160 120,120 190,160" fill="url(#roofFront)" stroke="#5efae4" stroke-width="0.5" stroke-opacity="0.3"/>
<rect x="75" y="180" width="25" height="30" rx="2" fill="url(#windowGlow)"/>
<rect x="140" y="180" width="25" height="30" rx="2" fill="url(#windowGlow)"/>
<rect x="75" y="230" width="25" height="30" rx="2" fill="url(#windowGlow)"/>
<rect x="140" y="230" width="25" height="30" rx="2" fill="url(#windowGlow)"/>
<rect x="110" y="190" width="20" height="15" rx="1" fill="#413fd6" opacity="0.5"/>
<rect x="50" y="155" width="140" height="8" fill="#413fd6" opacity="0.6"/>
<rect x="55" y="260" width="10" height="20" fill="#3a3a5a"/>
<rect x="175" y="260" width="10" height="20" fill="#3a3a5a"/>
<line x1="50" y1="170" x2="190" y2="170" stroke="#5efae4" stroke-width="0.3" opacity="0.2"/>
<line x1="50" y1="215" x2="190" y2="215" stroke="#5efae4" stroke-width="0.3" opacity="0.2"/>
<circle cx="120" cy="145" r="4" fill="#5efae4" opacity="0.8" filter="url(#medGlow)"/>
<circle cx="120" cy="145" r="2" fill="#fff" opacity="0.9"/>
<rect x="260" y="140" width="120" height="140" fill="url(#wallLeft)" rx="2" filter="url(#shadowFilter)"/>
<polygon points="260,140 320,100 380,140" fill="url(#roofLeft)" stroke="#5efae4" stroke-width="0.5" stroke-opacity="0.3"/>
<rect x="275" y="160" width="90" height="6" fill="#5efae4" opacity="0.15"/>
<rect x="275" y="175" width="90" height="4" fill="#413fd6" opacity="0.3"/>
<rect x="275" y="188" width="20" height="50" rx="1" fill="url(#windowGlow)"/>
<rect x="305" y="188" width="20" height="50" rx="1" fill="url(#windowGlow)"/>
<rect x="335" y="188" width="20" height="50" rx="1" fill="url(#windowGlow)"/>
<rect x="260" y="135" width="120" height="8" fill="#413fd6" opacity="0.5"/>
<rect x="265" y="260" width="8" height="20" fill="#3a3a5a"/>
<rect x="367" y="260" width="8" height="20" fill="#3a3a5a"/>
<circle cx="320" cy="125" r="5" fill="#413fd6" opacity="0.7" filter="url(#medGlow)"/>
<circle cx="320" cy="125" r="2.5" fill="#5efae4" opacity="0.9"/>
<rect x="275" y="248" width="18" height="10" fill="#5efae4" opacity="0.2"/>
<rect x="325" y="248" width="18" height="10" fill="#5efae4" opacity="0.2"/>
<rect x="420" y="170" width="100" height="110" fill="url(#wallRight)" rx="2" filter="url(#shadowFilter)"/>
<polygon points="420,170 470,135 520,170" fill="url(#roofRight)" stroke="#413fd6" stroke-width="0.5" stroke-opacity="0.3"/>
<rect x="430" y="190" width="18" height="25" rx="1" fill="url(#windowGlow)"/>
<rect x="458" y="190" width="18" height="25" rx="1" fill="url(#windowGlow)"/>
<rect x="486" y="190" width="18" height="25" rx="1" fill="url(#windowGlow)"/>
<rect x="420" y="165" width="100" height="8" fill="#413fd6" opacity="0.5"/>
<rect x="425" y="258" width="8" height="22" fill="#3a3a5a"/>
<rect x="507" y="258" width="8" height="22" fill="#3a3a5a"/>
<circle cx="470" cy="157" r="4" fill="#5efae4" opacity="0.7" filter="url(#medGlow)"/>
<circle cx="470" cy="157" r="2" fill="#fff" opacity="0.9"/>
<rect x="430" y="230" width="80" height="8" rx="1" fill="#413fd6" opacity="0.2"/>
<rect x="555" y="190" width="80" height="90" fill="url(#wallFront)" rx="2" filter="url(#shadowFilter)"/>
<polygon points="555,190 595,160 635,190" fill="url(#roofFront)" stroke="#5efae4" stroke-width="0.5" stroke-opacity="0.3"/>
<rect x="565" y="205" width="12" height="20" rx="1" fill="url(#windowGlow)"/>
<rect x="585" y="205" width="12" height="20" rx="1" fill="url(#windowGlow)"/>
<rect x="605" y="205" width="12" height="20" rx="1" fill="url(#windowGlow)"/>
<rect x="555" y="185" width="80" height="8" fill="#413fd6" opacity="0.5"/>
<rect x="560" y="260" width="6" height="20" fill="#3a3a5a"/>
<rect x="624" y="260" width="6" height="20" fill="#3a3a5a"/>
<circle cx="595" cy="178" r="3" fill="#5efae4" opacity="0.8" filter="url(#smallGlow)"/>
<rect x="565" y="240" width="12" height="14" fill="#413fd6" opacity="0.3"/>
<rect x="605" y="240" width="12" height="14" fill="#413fd6" opacity="0.3"/>
<rect x="670" y="210" width="110" height="70" fill="url(#wallLeft)" rx="2" filter="url(#shadowFilter)"/>
<polygon points="670,210 725,180 780,210" fill="url(#roofLeft)" stroke="#5efae4" stroke-width="0.5" stroke-opacity="0.3"/>
<rect x="680" y="220" width="14" height="18" rx="1" fill="url(#windowGlow)"/>
<rect x="704" y="220" width="14" height="18" rx="1" fill="url(#windowGlow)"/>
<rect x="728" y="220" width="14" height="18" rx="1" fill="url(#windowGlow)"/>
<rect x="752" y="220" width="14" height="18" rx="1" fill="url(#windowGlow)"/>
<rect x="670" y="205" width="110" height="8" fill="#413fd6" opacity="0.5"/>
<circle cx="725" cy="198" r="4" fill="#413fd6" opacity="0.6" filter="url(#medGlow)"/>
<circle cx="725" cy="198" r="2" fill="#5efae4" opacity="0.8"/>
<rect x="690" y="248" width="70" height="5" fill="#5efae4" opacity="0.1"/>
<rect x="680" y="258" width="6" height="22" fill="#3a3a5a"/>
<rect x="770" y="258" width="6" height="22" fill="#3a3a5a"/>
<rect x="40" y="270" width="50" height="10" fill="url(#chimneyGrad)"/>
<rect x="55" y="260" width="20" height="10" fill="#3a3a5a"/>
<ellipse cx="65" cy="258" rx="12" ry="3" fill="#4a4a6a"/>
<path d="M60 255 Q65 240 70 235 Q75 225 70 215" stroke="none" fill="url(#smokeGrad)" filter="url(#bigGlow)"/>
<path d="M55 250 Q50 235 55 225 Q60 215 55 205" stroke="none" fill="url(#smokeGrad)" filter="url(#bigGlow)"/>
<path d="M75 252 Q85 238 80 225 Q75 215 80 200" stroke="none" fill="url(#smokeGrad)" filter="url(#bigGlow)"/>
<rect x="440" y="130" width="30" height="40" fill="url(#chimneyGrad)"/>
<rect x="445" y="120" width="20" height="10" fill="#4a4a6a"/>
<path d="M450 118 Q455 105 460 98 Q465 88 458 75" stroke="none" fill="url(#smokeGrad)" filter="url(#bigGlow)"/>
<path d="M445 115 Q440 100 445 90 Q450 80 442 70" stroke="none" fill="url(#smokeGrad)" filter="url(#bigGlow)"/>
<path d="M460 116 Q470 102 465 92 Q460 82 468 68" stroke="none" fill="url(#smokeGrad)" filter="url(#bigGlow)"/>
<rect x="560" y="150" width="20" height="40" fill="url(#chimneyGrad)"/>
<rect x="563" y="142" width="14" height="8" fill="#4a4a6a"/>
<path d="M568 140 Q572 128 575 120 Q578 110 572 100" stroke="none" fill="url(#smokeGrad)" filter="url(#bigGlow)"/>
<path d="M562 138 Q558 125 562 115 Q565 105 560 95" stroke="none" fill="url(#smokeGrad)" filter="url(#bigGlow)"/>
<rect x="190" y="240" width="70" height="10" rx="3" fill="url(#beltGrad)" filter="url(#shadowFilter)"/>
<rect x="190" y="236" width="70" height="4" fill="#5efae4" opacity="0.2"/>
<line x1="200" y1="245" x2="200" y2="250" stroke="#5efae4" stroke-width="1" opacity="0.5"/>
<line x1="215" y1="245" x2="215" y2="250" stroke="#5efae4" stroke-width="1" opacity="0.5"/>
<line x1="230" y1="245" x2="230" y2="250" stroke="#5efae4" stroke-width="1" opacity="0.5"/>
<line x1="245" y1="245" x2="245" y2="250" stroke="#5efae4" stroke-width="1" opacity="0.5"/>
<rect x="195" y="242" width="8" height="6" rx="1" fill="#413fd6" opacity="0.8"/>
<rect x="210" y="242" width="8" height="6" rx="1" fill="#5efae4" opacity="0.6"/>
<rect x="225" y="242" width="8" height="6" rx="1" fill="#413fd6" opacity="0.7"/>
<rect x="240" y="242" width="8" height="6" rx="1" fill="#5efae4" opacity="0.5"/>
<circle cx="190" cy="247" r="4" fill="#3a3a5a"/>
<circle cx="260" cy="247" r="4" fill="#3a3a5a"/>
<rect x="380" y="235" width="40" height="8" rx="2" fill="url(#beltGrad)"/>
<rect x="382" y="237" width="36" height="4" fill="#5efae4" opacity="0.15"/>
<circle cx="380" cy="241" r="3" fill="#3a3a5a"/>
<circle cx="420" cy="241" r="3" fill="#3a3a5a"/>
<rect x="382" y="238" width="5" height="3" fill="#413fd6" opacity="0.6"/>
<rect x="390" y="238" width="5" height="3" fill="#5efae4" opacity="0.4"/>
<rect x="398" y="238" width="5" height="3" fill="#413fd6" opacity="0.5"/>
<rect x="406" y="238" width="5" height="3" fill="#5efae4" opacity="0.4"/>
<rect x="414" y="238" width="5" height="3" fill="#413fd6" opacity="0.5"/>
<rect x="130" y="255" width="30" height="25" rx="2" fill="url(#machineBody)"/>
<rect x="133" y="258" width="8" height="12" rx="1" fill="url(#machinePanel)"/>
<circle cx="147" cy="260" r="2" fill="#5efae4" opacity="0.8" filter="url(#smallGlow)"/>
<circle cx="147" cy="266" r="2" fill="#413fd6" opacity="0.6"/>
<circle cx="147" cy="272" r="2" fill="#5efae4" opacity="0.4"/>
<rect x="145" y="255" width="4" height="3" fill="#5efae4" opacity="0.15"/>
<rect x="230" y="255" width="35" height="25" rx="2" fill="url(#machineBody)"/>
<rect x="233" y="258" width="10" height="14" rx="1" fill="url(#machinePanel)"/>
<circle cx="249" cy="261" r="2" fill="#413fd6" opacity="0.7"/>
<circle cx="249" cy="267" r="2" fill="#5efae4" opacity="0.7" filter="url(#smallGlow)"/>
<circle cx="255" cy="261" r="2" fill="#5efae4" opacity="0.5"/>
<circle cx="255" cy="267" r="2" fill="#413fd6" opacity="0.5"/>
<rect x="120" y="267" width="50" height="6" fill="#3a3a5a" rx="1"/>
<rect x="235" y="267" width="30" height="6" fill="#3a3a5a" rx="1"/>
<rect x="370" y="255" width="30" height="25" rx="2" fill="url(#machineBody)"/>
<rect x="373" y="258" width="8" height="10" rx="1" fill="url(#machinePanel)"/>
<circle cx="387" cy="260" r="2" fill="#5efae4" opacity="0.6"/>
<circle cx="387" cy="266" r="2" fill="#413fd6" opacity="0.7"/>
<circle cx="393" cy="260" r="2" fill="#5efae4" opacity="0.8" filter="url(#smallGlow)"/>
<rect x="520" y="250" width="30" height="30" rx="2" fill="url(#machineBody)"/>
<rect x="523" y="253" width="8" height="8" rx="1" fill="url(#machinePanel)"/>
<circle cx="537" cy="255" r="2" fill="#5efae4" opacity="0.8" filter="url(#smallGlow)"/>
<circle cx="537" cy="262" r="2" fill="#413fd6" opacity="0.6"/>
<circle cx="537" cy="269" r="2" fill="#5efae4" opacity="0.4"/>
<rect x="524" y="266" width="22" height="3" fill="#5efae4" opacity="0.1"/>
<rect x="635" y="255" width="25" height="25" rx="2" fill="url(#machineBody)"/>
<rect x="638" y="258" width="7" height="10" rx="1" fill="url(#machinePanel)"/>
<circle cx="650" cy="260" r="2" fill="#413fd6" opacity="0.6"/>
<circle cx="650" cy="267" r="2" fill="#5efae4" opacity="0.7" filter="url(#smallGlow)"/>
<rect x="520" y="245" width="30" height="5" fill="#3a3a5a"/>
<rect x="635" y="250" width="25" height="5" fill="#3a3a5a"/>
<path d="M295 200 L295 220 L310 220 L310 200 Z" fill="url(#machineBody)"/>
<rect x="298" y="203" width="9" height="6" rx="1" fill="#5efae4" opacity="0.3"/>
<rect x="298" y="212" width="9" height="6" rx="1" fill="#413fd6" opacity="0.3"/>
<circle cx="310" cy="210" r="2" fill="#5efae4" opacity="0.6" filter="url(#smallGlow)"/>
<rect x="320" y="195" width="40" height="25" rx="3" fill="url(#machineBody)" filter="url(#shadowFilter)"/>
<rect x="323" y="198" width="12" height="8" rx="1" fill="url(#machinePanel)"/>
<circle cx="340" cy="200" r="2" fill="#5efae4" opacity="0.8" filter="url(#smallGlow)"/>
<circle cx="340" cy="207" r="2" fill="#413fd6" opacity="0.6"/>
<circle cx="340" cy="214" r="2" fill="#5efae4" opacity="0.4"/>
<rect x="324" y="212" width="32" height="3" rx="1" fill="#5efae4" opacity="0.1"/>
<rect x="340" y="195" width="4" height="3" fill="#5efae4" opacity="0.2"/>
<line x1="160" y1="270" x2="190" y2="248" stroke="#5efae4" stroke-width="0.8" opacity="0.3"/>
<line x1="160" y1="270" x2="190" y2="240" stroke="#5efae4" stroke-width="0.8" opacity="0.3"/>
<line x1="260" y1="248" x2="295" y2="220" stroke="#5efae4" stroke-width="0.8" opacity="0.3"/>
<line x1="260" y1="248" x2="295" y2="215" stroke="#5efae4" stroke-width="0.8" opacity="0.3"/>
<line x1="400" y1="242" x2="420" y2="235" stroke="#5efae4" stroke-width="0.6" opacity="0.3"/>
<line x1="420" y1="235" x2="520" y2="260" stroke="#413fd6" stroke-width="0.5" opacity="0.2"/>
<line x1="420" y1="235" x2="520" y2="255" stroke="#5efae4" stroke-width="0.5" opacity="0.2"/>
<line x1="520" y1="280" x2="635" y2="280" stroke="#413fd6" stroke-width="0.8" opacity="0.3"/>
<line x1="635" y1="280" x2="670" y2="275" stroke="#5efae4" stroke-width="0.8" opacity="0.3"/>
<rect x="355" y="210" width="15" height="50" rx="1" fill="url(#pipeV)"/>
<rect x="355" y="205" width="15" height="5" fill="#5efae4" opacity="0.5"/>
<rect x="350" y="210" width="5" height="50" fill="#413fd6" opacity="0.3"/>
<rect x="370" y="260" width="5" height="15" fill="#3a3a5a"/>
<rect x="350" y="258" width="25" height="4" fill="#5efae4" opacity="0.15"/>
<rect x="475" y="200" width="8" height="60" rx="1" fill="url(#pipeV)"/>
<rect x="475" y="196" width="8" height="4" fill="#5efae4" opacity="0.4"/>
<rect x="483" y="220" width="50" height="6" rx="1" fill="url(#pipeH)"/>
<rect x="533" y="220" width="6" height="30" fill="url(#pipeV)"/>
<rect x="533" y="218" width="6" height="4" fill="#5efae4" opacity="0.4"/>
<circle cx="365" cy="215" r="3" fill="#5efae4" opacity="0.4"/>
<circle cx="365" cy="230" r="3" fill="#5efae4" opacity="0.3"/>
<circle cx="365" cy="245" r="3" fill="#5efae4" opacity="0.2"/>
<circle cx="479" cy="215" r="2" fill="#5efae4" opacity="0.4"/>
<circle cx="479" cy="230" r="2" fill="#5efae4" opacity="0.3"/>
<circle cx="479" cy="245" r="2" fill="#5efae4" opacity="0.2"/>
<circle cx="504" cy="230" r="2" fill="#413fd6" opacity="0.3"/>
<circle cx="518" cy="230" r="2" fill="#413fd6" opacity="0.3"/>
<rect x="196" y="276" width="140" height="4" rx="1" fill="#413fd6" opacity="0.15"/>
<rect x="400" y="276" width="200" height="4" rx="1" fill="#413fd6" opacity="0.15"/>
<rect x="670" y="276" width="80" height="4" rx="1" fill="#413fd6" opacity="0.15"/>
<rect x="196" y="273" width="140" height="3" fill="#5efae4" opacity="0.05"/>
<rect x="400" y="273" width="200" height="3" fill="#5efae4" opacity="0.05"/>
<rect x="670" y="273" width="80" height="3" fill="#5efae4" opacity="0.05"/>
<path d="M65 280 L85 280 L80 290 L70 290 Z" fill="#4a4a6a"/>
<path d="M85 280 L100 280 L95 290 L80 290 Z" fill="#3a3a5a"/>
<rect x="70" y="285" width="10" height="15" rx="1" fill="#3a3a5a"/>
<circle cx="75" cy="283" r="3" fill="#5efae4" opacity="0.3"/>
<rect x="620" y="260" width="12" height="20" rx="2" fill="#4a4a6a"/>
<rect x="614" y="258" width="24" height="4" fill="#3a3a5a"/>
<circle cx="626" cy="270" r="2" fill="#413fd6" opacity="0.5"/>
<circle cx="626" cy="276" r="2" fill="#5efae4" opacity="0.5"/>
<rect x="90" y="130" width="8" height="30" fill="url(#pipeV)"/>
<rect x="90" y="128" width="8" height="4" fill="#5efae4" opacity="0.4"/>
<circle cx="94" cy="140" r="2" fill="#5efae4" opacity="0.5"/>
<circle cx="94" cy="150" r="2" fill="#5efae4" opacity="0.3"/>
<circle cx="5" cy="278" r="20" fill="url(#sensorGlow)" opacity="0.6"/>
<circle cx="5" cy="278" r="3" fill="#5efae4" opacity="0.9" filter="url(#medGlow)"/>
<circle cx="795" cy="278" r="20" fill="url(#sensorGlow)" opacity="0.6"/>
<circle cx="795" cy="278" r="3" fill="#5efae4" opacity="0.9" filter="url(#medGlow)"/>
<circle cx="400" cy="278" r="25" fill="url(#sensorGlow2)" opacity="0.4"/>
<circle cx="400" cy="278" r="4" fill="#413fd6" opacity="0.7" filter="url(#medGlow)"/>
<circle cx="200" cy="140" r="20" fill="url(#sensorGlow)" opacity="0.3"/>
<circle cx="200" cy="140" r="3" fill="#5efae4" opacity="0.6"/>
<circle cx="500" cy="165" r="18" fill="url(#sensorGlow)" opacity="0.3"/>
<circle cx="500" cy="165" r="3" fill="#5efae4" opacity="0.6"/>
<circle cx="700" cy="200" r="20" fill="url(#sensorGlow2)" opacity="0.3"/>
<circle cx="700" cy="200" r="3" fill="#413fd6" opacity="0.5"/>
<circle cx="320" cy="120" r="15" fill="url(#sensorGlow)" opacity="0.2"/>
<circle cx="595" cy="175" r="15" fill="url(#sensorGlow2)" opacity="0.25"/>
<rect x="150" y="268" width="8" height="12" fill="#3a3a5a"/>
<rect x="270" y="268" width="8" height="12" fill="#3a3a5a"/>
<rect x="500" y="268" width="8" height="12" fill="#3a3a5a"/>
<rect x="660" y="268" width="8" height="12" fill="#3a3a5a"/>
<rect x="150" y="265" width="8" height="3" fill="#5efae4" opacity="0.2"/>
<rect x="270" y="265" width="8" height="3" fill="#5efae4" opacity="0.2"/>
<rect x="500" y="265" width="8" height="3" fill="#5efae4" opacity="0.2"/>
<rect x="660" y="265" width="8" height="3" fill="#5efae4" opacity="0.2"/>
<line x1="250" y1="200" x2="250" y2="240" stroke="#413fd6" stroke-width="0.5" opacity="0.2"/>
<line x1="400" y1="210" x2="400" y2="240" stroke="#5efae4" stroke-width="0.5" opacity="0.2"/>
<line x1="550" y1="220" x2="550" y2="250" stroke="#413fd6" stroke-width="0.5" opacity="0.2"/>
<line x1="700" y1="230" x2="700" y2="260" stroke="#5efae4" stroke-width="0.5" opacity="0.2"/>
<path d="M380 257 L380 270 L395 270 L395 257 Z" fill="#4a4a6a"/>
<rect x="383" y="260" width="3" height="3" fill="#5efae4" opacity="0.5"/>
<rect x="390" y="260" width="3" height="3" fill="#413fd6" opacity="0.5"/>
<rect x="383" y="265" width="3" height="3" fill="#413fd6" opacity="0.4"/>
<rect x="390" y="265" width="3" height="3" fill="#5efae4" opacity="0.4"/>
<path d="M440 240 L440 260 L455 260 L455 240 Z" fill="#4a4a6a"/>
<rect x="443" y="243" width="3" height="3" fill="#5efae4" opacity="0.6"/>
<rect x="450" y="243" width="3" height="3" fill="#413fd6" opacity="0.5"/>
<rect x="443" y="249" width="3" height="3" fill="#413fd6" opacity="0.4"/>
<rect x="450" y="249" width="3" height="3" fill="#5efae4" opacity="0.4"/>
<rect x="443" y="255" width="9" height="3" fill="#5efae4" opacity="0.1"/>
<circle cx="340" cy="243" r="6" fill="url(#sensorGlow)" opacity="0.5"/>
<circle cx="340" cy="243" r="2" fill="#5efae4" opacity="0.8" filter="url(#smallGlow)"/>
<circle cx="580" cy="243" r="6" fill="url(#sensorGlow2)" opacity="0.4"/>
<circle cx="580" cy="243" r="2" fill="#413fd6" opacity="0.6"/>
<circle cx="120" cy="132" r="8" fill="url(#sensorGlow)" opacity="0.4"/>
<circle cx="120" cy="132" r="2" fill="#5efae4" opacity="0.7"/>
<circle cx="470" cy="152" r="8" fill="url(#sensorGlow)" opacity="0.3"/>
<circle cx="470" cy="152" r="2" fill="#5efae4" opacity="0.6"/>
<rect x="15" y="290" width="770" height="1" fill="#5efae4" opacity="0.05"/>
<rect x="15" y="295" width="770" height="1" fill="#413fd6" opacity="0.05"/>
<rect x="15" y="300" width="770" height="1" fill="#5efae4" opacity="0.03"/>
<rect x="15" y="310" width="770" height="1" fill="#413fd6" opacity="0.03"/>
<rect x="15" y="320" width="770" height="1" fill="#5efae4" opacity="0.02"/>
<rect x="15" y="330" width="770" height="1" fill="#413fd6" opacity="0.02"/>
<rect x="15" y="340" width="770" height="1" fill="#5efae4" opacity="0.02"/>
<rect x="15" y="350" width="770" height="1" fill="#413fd6" opacity="0.01"/>
<rect x="15" y="360" width="770" height="1" fill="#5efae4" opacity="0.01"/>
<rect x="15" y="370" width="770" height="1" fill="#413fd6" opacity="0.01"/>
<rect x="15" y="380" width="770" height="1" fill="#5efae4" opacity="0.01"/>
<rect x="15" y="390" width="770" height="1" fill="#413fd6" opacity="0.01"/>
<rect x="0" y="280" width="800" height="120" fill="url(#floorGrad)" opacity="0.15"/>
<path d="M0 280 L800 280 L800 400 L0 400 Z" fill="none" stroke="#413fd6" stroke-width="2" opacity="0.08"/>
<ellipse cx="400" cy="395" rx="350" ry="5" fill="#5efae4" opacity="0.03"/>
<ellipse cx="200" cy="395" rx="150" ry="3" fill="#413fd6" opacity="0.03"/>
<ellipse cx="600" cy="395" rx="150" ry="3" fill="#413fd6" opacity="0.03"/>
</svg>
