<svg xmlns="http://www.w3.org/2000/svg" viewBox="0 0 1200 680"><defs><linearGradient id="bg" x1="0" x2="1" y1="0" y2="1"><stop stop-color="#f8f7ff"/><stop offset="1" stop-color="#dffcf8"/></linearGradient><linearGradient id="floor" x1="0" x2="1"><stop stop-color="#eef0ff"/><stop offset="1" stop-color="#ffffff"/></linearGradient><filter id="shadow"><feDropShadow dx="0" dy="18" stdDeviation="18" flood-color="#413fd6" flood-opacity=".16"/></filter></defs><rect width="1200" height="680" fill="url(#bg)"/><path d="M90 460 430 300 1090 430 725 610z" fill="url(#floor)" stroke="#c7c4d7" stroke-width="3"/><g opacity=".22" stroke="#413fd6"><path d="M150 456 495 315 1048 429"/><path d="M242 506 568 348 960 474"/><path d="M360 560 640 380 835 512"/></g><g filter="url(#shadow)"><rect x="135" y="210" width="220" height="138" rx="18" fill="#413fd6"/><rect x="170" y="242" width="150" height="22" rx="6" fill="#c1c1ff"/><rect x="170" y="280" width="105" height="18" rx="6" fill="#5efae4"/><rect x="420" y="185" width="180" height="170" rx="20" fill="#2e29c6"/><rect x="450" y="225" width="120" height="80" rx="12" fill="#e1dfff"/><rect x="730" y="198" width="250" height="134" rx="22" fill="#413fd6"/><rect x="765" y="228" width="180" height="22" rx="6" fill="#5efae4"/></g><g stroke="#5efae4" stroke-width="24" stroke-linecap="round" stroke-linejoin="round" filter="url(#shadow)"><path d="M620 405v-120l85-78"/><path d="M705 207l90 54"/><path d="M705 207l-55 74"/></g><g fill="#15d8c3"><circle cx="795" cy="262" r="31"/><circle cx="650" cy="283" r="22"/></g><g fill="#ffba4b"><rect x="210" y="395" width="170" height="24" rx="12"/><rect x="380" y="392" width="170" height="24" rx="12"/><rect x="550" y="390" width="170" height="24" rx="12"/></g><g fill="#191a28"><circle cx="238" cy="430" r="18"/><circle cx="348" cy="430" r="18"/><circle cx="458" cy="427" r="18"/><circle cx="568" cy="426" r="18"/></g><g opacity=".9"><rect x="830" y="370" width="180" height="84" rx="14" fill="#ffffff" stroke="#c7c4d7"/><path d="M850 430 880 405 912 418 942 388 980 402" fill="none" stroke="#413fd6" stroke-width="6" stroke-linecap="round"/><text x="860" y="395" font-family="Inter,Arial" font-size="18" font-weight="800" fill="#413fd6">CNC CELL</text></g><text x="70" y="92" font-family="Inter,Arial" font-size="48" font-weight="900" fill="#191a28">Pune Auto Components</text><text x="72" y="135" font-family="Inter,Arial" font-size="25" fill="#464555">Robotic welding, CNC machining, AGV material flow</text></svg>
