<svg xmlns="http://www.w3.org/2000/svg" viewBox="0 0 1200 680"><defs><linearGradient id="bg" x1="0" x2="1" y1="0" y2="1"><stop stop-color="#fbf8ff"/><stop offset="1" stop-color="#eef0ff"/></linearGradient><filter id="shadow"><feDropShadow dx="0" dy="16" stdDeviation="16" flood-color="#09006b" flood-opacity=".13"/></filter></defs><rect width="1200" height="680" fill="url(#bg)"/><path d="M85 470 430 308 1108 440 760 618z" fill="#fff" stroke="#c7c4d7" stroke-width="3"/><g opacity=".4" stroke="#c7c4d7"><path d="M160 475h780"/><path d="M245 430h720"/><path d="M335 390h610"/></g><g filter="url(#shadow)"><rect x="165" y="230" width="170" height="160" rx="22" fill="#413fd6"/><rect x="205" y="265" width="90" height="90" rx="45" fill="#5efae4"/><rect x="410" y="205" width="230" height="170" rx="24" fill="#f4f2ff" stroke="#413fd6" stroke-width="8"/><circle cx="525" cy="290" r="58" fill="#c1c1ff"/><path d="M490 290h70M525 255v70" stroke="#413fd6" stroke-width="10" stroke-linecap="round"/><rect x="725" y="225" width="260" height="145" rx="24" fill="#191a28"/><path d="M760 330c65-85 125 55 190-32" fill="none" stroke="#5efae4" stroke-width="10" stroke-linecap="round"/></g><g fill="#ffffff" stroke="#c7c4d7"><rect x="205" y="430" width="145" height="82" rx="14"/><rect x="430" y="430" width="145" height="82" rx="14"/><rect x="655" y="430" width="145" height="82" rx="14"/><rect x="880" y="430" width="145" height="82" rx="14"/></g><g fill="#15d8c3"><circle cx="278" cy="471" r="12"/><circle cx="503" cy="471" r="12"/><circle cx="728" cy="471" r="12"/><circle cx="953" cy="471" r="12"/></g><text x="70" y="92" font-family="Inter,Arial" font-size="48" font-weight="900" fill="#191a28">Bengaluru Precision Engineering</text><text x="72" y="135" font-family="Inter,Arial" font-size="25" fill="#464555">Micro-machining, metrology lab, additive manufacturing</text></svg>
