<svg xmlns="http://www.w3.org/2000/svg" viewBox="0 0 1200 680"><defs><linearGradient id="bg" x1="0" x2="1"><stop stop-color="#f7f6ff"/><stop offset="1" stop-color="#eafffb"/></linearGradient><filter id="shadow"><feDropShadow dx="0" dy="14" stdDeviation="14" flood-color="#413fd6" flood-opacity=".15"/></filter></defs><rect width="1200" height="680" fill="url(#bg)"/><path d="M90 470 455 302 1110 438 735 620z" fill="#fff" stroke="#c7c4d7" stroke-width="3"/><g filter="url(#shadow)"><rect x="150" y="250" width="870" height="92" rx="22" fill="#413fd6"/><rect x="205" y="272" width="100" height="48" rx="8" fill="#5efae4"/><rect x="335" y="272" width="100" height="48" rx="8" fill="#c1c1ff"/><rect x="465" y="272" width="100" height="48" rx="8" fill="#5efae4"/><rect x="595" y="272" width="100" height="48" rx="8" fill="#c1c1ff"/><rect x="725" y="272" width="100" height="48" rx="8" fill="#5efae4"/><rect x="855" y="272" width="100" height="48" rx="8" fill="#c1c1ff"/></g><g stroke="#413fd6" stroke-width="8" stroke-linecap="round"><path d="M255 380v80h125"/><path d="M435 380v100h170"/><path d="M620 380v60h160"/><path d="M825 380v90h120"/></g><g fill="#ffba4b"><circle cx="380" cy="460" r="22"/><circle cx="605" cy="480" r="22"/><circle cx="780" cy="440" r="22"/><circle cx="945" cy="470" r="22"/></g><g fill="#ffffff" stroke="#c7c4d7"><rect x="170" y="410" width="110" height="78" rx="14"/><rect x="430" y="420" width="130" height="86" rx="14"/><rect x="700" y="400" width="130" height="86" rx="14"/></g><g opacity=".85"><rect x="930" y="155" width="130" height="82" rx="16" fill="#191a28"/><path d="M952 206h80" stroke="#5efae4" stroke-width="8" stroke-linecap="round"/><path d="M952 180h55" stroke="#c1c1ff" stroke-width="8" stroke-linecap="round"/></g><text x="70" y="92" font-family="Inter,Arial" font-size="48" font-weight="900" fill="#191a28">Chennai Electronics Assembly</text><text x="72" y="135" font-family="Inter,Arial" font-size="25" fill="#464555">SMT line, AOI inspection, reflow and test benches</text></svg>
